<?xml version="1.0" encoding="UTF-8"?>
<!--Generator: Apple Native CoreSVG 149-->
<!DOCTYPE svg
PUBLIC "-//W3C//DTD SVG 1.1//EN"
       "http://www.w3.org/Graphics/SVG/1.1/DTD/svg11.dtd">
<svg version="1.1" xmlns="http://www.w3.org/2000/svg" xmlns:xlink="http://www.w3.org/1999/xlink" width="3300" height="2200">
 <!--glyph: "uni1007FB.medium", point size: 100.000000, font version: "Version 16.0d18e1", template writer version: "8"-->
 <g id="Notes">
  <rect height="2200" id="artboard" style="fill:white;opacity:1" width="3300" x="0" y="0"/>
  <line id="" style="fill:none;stroke:black;opacity:1;stroke-width:0.5;" x1="263" x2="3036" y1="292" y2="292"/>
  <text style="stroke:none;fill:black;font-family:-apple-system,&quot;SF Pro Display&quot;,&quot;SF Pro Text&quot;,Helvetica,sans-serif;font-weight:bold;" transform="matrix(1 0 0 1 263 322)">Weight/Scale Variations</text>
  <text style="stroke:none;fill:black;font-family:-apple-system,&quot;SF Pro Display&quot;,&quot;SF Pro Text&quot;,Helvetica,sans-serif;text-anchor:middle;" transform="matrix(1 0 0 1 559.711 322)">Ultralight</text>
  <text style="stroke:none;fill:black;font-family:-apple-system,&quot;SF Pro Display&quot;,&quot;SF Pro Text&quot;,Helvetica,sans-serif;text-anchor:middle;" transform="matrix(1 0 0 1 856.422 322)">Thin</text>
  <text style="stroke:none;fill:black;font-family:-apple-system,&quot;SF Pro Display&quot;,&quot;SF Pro Text&quot;,Helvetica,sans-serif;text-anchor:middle;" transform="matrix(1 0 0 1 1153.13 322)">Light</text>
  <text style="stroke:none;fill:black;font-family:-apple-system,&quot;SF Pro Display&quot;,&quot;SF Pro Text&quot;,Helvetica,sans-serif;text-anchor:middle;" transform="matrix(1 0 0 1 1449.84 322)">Regular</text>
  <text style="stroke:none;fill:black;font-family:-apple-system,&quot;SF Pro Display&quot;,&quot;SF Pro Text&quot;,Helvetica,sans-serif;text-anchor:middle;" transform="matrix(1 0 0 1 1746.56 322)">Medium</text>
  <text style="stroke:none;fill:black;font-family:-apple-system,&quot;SF Pro Display&quot;,&quot;SF Pro Text&quot;,Helvetica,sans-serif;text-anchor:middle;" transform="matrix(1 0 0 1 2043.27 322)">Semibold</text>
  <text style="stroke:none;fill:black;font-family:-apple-system,&quot;SF Pro Display&quot;,&quot;SF Pro Text&quot;,Helvetica,sans-serif;text-anchor:middle;" transform="matrix(1 0 0 1 2339.98 322)">Bold</text>
  <text style="stroke:none;fill:black;font-family:-apple-system,&quot;SF Pro Display&quot;,&quot;SF Pro Text&quot;,Helvetica,sans-serif;text-anchor:middle;" transform="matrix(1 0 0 1 2636.69 322)">Heavy</text>
  <text style="stroke:none;fill:black;font-family:-apple-system,&quot;SF Pro Display&quot;,&quot;SF Pro Text&quot;,Helvetica,sans-serif;text-anchor:middle;" transform="matrix(1 0 0 1 2933.4 322)">Black</text>
  <line id="" style="fill:none;stroke:black;opacity:1;stroke-width:0.5;" x1="263" x2="3036" y1="1903" y2="1903"/>
  <g id="" transform="matrix(1 0 0 1 263 1933)">
   <path d="M9.24805 0.830078C13.5547 0.830078 17.1387-2.74414 17.1387-7.05078C17.1387-11.3574 13.5449-14.9316 9.23828-14.9316C4.94141-14.9316 1.36719-11.3574 1.36719-7.05078C1.36719-2.74414 4.95117 0.830078 9.24805 0.830078ZM9.24805-0.654297C5.70312-0.654297 2.87109-3.49609 2.87109-7.05078C2.87109-10.6055 5.69336-13.4473 9.23828-13.4473C12.793-13.4473 15.6348-10.6055 15.6445-7.05078C15.6543-3.49609 12.8027-0.654297 9.24805-0.654297ZM6.39648-6.31836L8.50586-6.31836L8.50586-4.19922C8.50586-3.75977 8.79883-3.45703 9.22852-3.45703C9.67773-3.45703 9.9707-3.75977 9.9707-4.19922L9.9707-6.31836L12.0996-6.31836C12.5391-6.31836 12.8418-6.61133 12.8418-7.04102C12.8418-7.48047 12.5391-7.7832 12.0996-7.7832L9.9707-7.7832L9.9707-9.89258C9.9707-10.3418 9.67773-10.6445 9.22852-10.6445C8.79883-10.6445 8.50586-10.3418 8.50586-9.89258L8.50586-7.7832L6.39648-7.7832C5.94727-7.7832 5.64453-7.48047 5.64453-7.04102C5.64453-6.61133 5.94727-6.31836 6.39648-6.31836Z"/>
  </g>
  <g id="" transform="matrix(1 0 0 1 281.506 1933)">
   <path d="M11.709 2.91016C17.1582 2.91016 21.6699-1.61133 21.6699-7.05078C21.6699-12.5 17.1484-17.0117 11.6992-17.0117C6.25977-17.0117 1.74805-12.5 1.74805-7.05078C1.74805-1.61133 6.26953 2.91016 11.709 2.91016ZM11.709 1.25C7.09961 1.25 3.41797-2.44141 3.41797-7.05078C3.41797-11.6602 7.08984-15.3516 11.6992-15.3516C16.3086-15.3516 20-11.6602 20.0098-7.05078C20.0195-2.44141 16.3184 1.25 11.709 1.25ZM7.98828-6.23047L10.8789-6.23047L10.8789-3.32031C10.8789-2.83203 11.2109-2.5 11.6895-2.5C12.1777-2.5 12.5195-2.83203 12.5195-3.32031L12.5195-6.23047L15.4297-6.23047C15.918-6.23047 16.25-6.5625 16.25-7.04102C16.25-7.5293 15.918-7.87109 15.4297-7.87109L12.5195-7.87109L12.5195-10.7617C12.5195-11.2695 12.1777-11.6016 11.6895-11.6016C11.2109-11.6016 10.8789-11.2598 10.8789-10.7617L10.8789-7.87109L7.98828-7.87109C7.48047-7.87109 7.14844-7.5293 7.14844-7.04102C7.14844-6.5625 7.49023-6.23047 7.98828-6.23047Z"/>
  </g>
  <g id="" transform="matrix(1 0 0 1 304.924 1933)">
   <path d="M14.9707 5.66406C21.9336 5.66406 27.6953-0.0976562 27.6953-7.05078C27.6953-14.0137 21.9238-19.7754 14.9609-19.7754C8.00781-19.7754 2.25586-14.0137 2.25586-7.05078C2.25586-0.0976562 8.01758 5.66406 14.9707 5.66406ZM14.9707 3.84766C8.93555 3.84766 4.08203-1.01562 4.08203-7.05078C4.08203-13.0957 8.92578-17.9492 14.9609-17.9492C21.0059-17.9492 25.8594-13.0957 25.8691-7.05078C25.8789-1.01562 21.0156 3.84766 14.9707 3.84766ZM10.0586-6.14258L14.0625-6.14258L14.0625-2.12891C14.0625-1.5918 14.4336-1.2207 14.9512-1.2207C15.4883-1.2207 15.8594-1.5918 15.8594-2.12891L15.8594-6.14258L19.8828-6.14258C20.4102-6.14258 20.791-6.51367 20.791-7.03125C20.791-7.56836 20.4199-7.94922 19.8828-7.94922L15.8594-7.94922L15.8594-11.9531C15.8594-12.5098 15.4883-12.8809 14.9512-12.8809C14.4336-12.8809 14.0625-12.5 14.0625-11.9531L14.0625-7.94922L10.0586-7.94922C9.50195-7.94922 9.13086-7.56836 9.13086-7.03125C9.13086-6.51367 9.51172-6.14258 10.0586-6.14258Z"/>
  </g>
  <text style="stroke:none;fill:black;font-family:-apple-system,&quot;SF Pro Display&quot;,&quot;SF Pro Text&quot;,Helvetica,sans-serif;font-weight:bold;" transform="matrix(1 0 0 1 263 1953)">Design Variations</text>
  <text style="stroke:none;fill:black;font-family:-apple-system,&quot;SF Pro Display&quot;,&quot;SF Pro Text&quot;,Helvetica,sans-serif;" transform="matrix(1 0 0 1 263 1971)">Symbols are supported in up to nine weights and three scales.</text>
  <text style="stroke:none;fill:black;font-family:-apple-system,&quot;SF Pro Display&quot;,&quot;SF Pro Text&quot;,Helvetica,sans-serif;" transform="matrix(1 0 0 1 263 1989)">For optimal layout with text and other symbols, vertically align</text>
  <text style="stroke:none;fill:black;font-family:-apple-system,&quot;SF Pro Display&quot;,&quot;SF Pro Text&quot;,Helvetica,sans-serif;" transform="matrix(1 0 0 1 263 2007)">symbols with the adjacent text.</text>
  <line id="" style="fill:none;stroke:#00AEEF;stroke-width:0.5;opacity:1.0;" x1="776" x2="776" y1="1919" y2="1933"/>
  <g id="" transform="matrix(1 0 0 1 776 1933)">
   <path d="M3.31055 0.126953C3.82812 0.126953 4.08203-0.0683594 4.26758-0.605469L5.52734-4.0625L11.2891-4.0625L12.5488-0.605469C12.7344-0.0683594 12.9883 0.126953 13.4961 0.126953C14.0137 0.126953 14.3457-0.185547 14.3457-0.673828C14.3457-0.839844 14.3164-0.986328 14.2383-1.20117L9.6582-13.3887C9.43359-13.9941 9.0332-14.2871 8.4082-14.2871C7.80273-14.2871 7.39258-13.9941 7.17773-13.3984L2.59766-1.19141C2.51953-0.976562 2.49023-0.830078 2.49023-0.664062C2.49023-0.175781 2.80273 0.126953 3.31055 0.126953ZM6.00586-5.53711L8.37891-12.1094L8.42773-12.1094L10.8008-5.53711Z"/>
  </g>
  <line id="" style="fill:none;stroke:#00AEEF;stroke-width:0.5;opacity:1.0;" x1="792.836" x2="792.836" y1="1919" y2="1933"/>
  <text style="stroke:none;fill:black;font-family:-apple-system,&quot;SF Pro Display&quot;,&quot;SF Pro Text&quot;,Helvetica,sans-serif;font-weight:bold;" transform="matrix(1 0 0 1 776 1953)">Margins</text>
  <text style="stroke:none;fill:black;font-family:-apple-system,&quot;SF Pro Display&quot;,&quot;SF Pro Text&quot;,Helvetica,sans-serif;" transform="matrix(1 0 0 1 776 1971)">Leading and trailing margins on the left and right side of each symbol</text>
  <text style="stroke:none;fill:black;font-family:-apple-system,&quot;SF Pro Display&quot;,&quot;SF Pro Text&quot;,Helvetica,sans-serif;" transform="matrix(1 0 0 1 776 1989)">can be adjusted by modifying the x-location of the margin guidelines.</text>
  <text style="stroke:none;fill:black;font-family:-apple-system,&quot;SF Pro Display&quot;,&quot;SF Pro Text&quot;,Helvetica,sans-serif;" transform="matrix(1 0 0 1 776 2007)">Modifications are automatically applied proportionally to all</text>
  <text style="stroke:none;fill:black;font-family:-apple-system,&quot;SF Pro Display&quot;,&quot;SF Pro Text&quot;,Helvetica,sans-serif;" transform="matrix(1 0 0 1 776 2025)">scales and weights.</text>
  <g id="" transform="matrix(1 0 0 1 1289 1933)">
   <path d="M2.8418 1.86523L4.54102 3.57422C5.40039 4.44336 6.38672 4.38477 7.31445 3.35938L17.4902-7.85156C17.7539-7.76367 18.0273-7.7832 18.3398-7.8418L19.4043-8.03711L20.0684-7.36328L20.0293-6.80664C19.9902-6.30859 20.1172-5.92773 20.6055-5.44922L21.3672-4.70703C21.8457-4.22852 22.4609-4.19922 22.9297-4.66797L25.8398-7.58789C26.3086-8.05664 26.2891-8.65234 25.8105-9.13086L25.0391-9.89258C24.5605-10.3711 24.1895-10.5273 23.7109-10.4883L23.1348-10.4395L22.4902-11.0742L22.7344-12.1973C22.8613-12.7637 22.7051-13.2031 22.1191-13.7891L19.9219-15.9766C16.582-19.2969 12.1484-19.2188 9.25781-16.3281C8.83789-15.918 8.80859-15.3418 9.04297-14.9512C9.27734-14.5898 9.73633-14.3555 10.3809-14.5215C11.8457-14.8633 13.3691-14.9219 14.7949-13.9844L14.209-12.5293C14.0137-12.0508 13.9844-11.6504 14.1113-11.2891L3.04688-0.898438C2.06055 0.0195312 1.98242 0.996094 2.8418 1.86523ZM10.752-15.957C13.1836-17.7344 16.4746-17.4316 18.7012-15.2051L21.1328-12.793C21.3672-12.5586 21.4062-12.373 21.3379-12.0312L21.0156-10.5469L22.5195-9.0625L23.5059-9.12109C23.7598-9.13086 23.8379-9.11133 24.0332-8.91602L24.6094-8.33984L22.168-5.89844L21.5918-6.47461C21.3965-6.66992 21.3672-6.74805 21.377-7.01172L21.4453-7.98828L19.9512-9.47266L18.4277-9.21875C18.1055-9.15039 17.959-9.17969 17.7148-9.41406L15.7129-11.416C15.459-11.6504 15.4297-11.8164 15.5859-12.1875L16.4648-14.2773C14.9023-15.7324 12.8711-16.3574 10.8398-15.7617C10.6836-15.7227 10.625-15.8496 10.752-15.957ZM5.27344 2.30469L4.10156 1.14258C3.63281 0.683594 3.74023 0.341797 4.14062-0.0195312L14.9512-10.1953L16.416-8.71094L6.42578 2.27539C6.07422 2.67578 5.74219 2.77344 5.27344 2.30469Z"/>
  </g>
  <text style="stroke:none;fill:black;font-family:-apple-system,&quot;SF Pro Display&quot;,&quot;SF Pro Text&quot;,Helvetica,sans-serif;font-weight:bold;" transform="matrix(1 0 0 1 1289 1953)">Exporting</text>
  <text style="stroke:none;fill:black;font-family:-apple-system,&quot;SF Pro Display&quot;,&quot;SF Pro Text&quot;,Helvetica,sans-serif;" transform="matrix(1 0 0 1 1289 1971)">Symbols should be outlined when exporting to ensure the</text>
  <text style="stroke:none;fill:black;font-family:-apple-system,&quot;SF Pro Display&quot;,&quot;SF Pro Text&quot;,Helvetica,sans-serif;" transform="matrix(1 0 0 1 1289 1989)">design is preserved when submitting to Xcode.</text>
  <text id="template-version" style="stroke:none;fill:black;font-family:-apple-system,&quot;SF Pro Display&quot;,&quot;SF Pro Text&quot;,Helvetica,sans-serif;text-anchor:end;" transform="matrix(1 0 0 1 3036 1933)">Template v.2.0</text>
  <text style="stroke:none;fill:black;font-family:-apple-system,&quot;SF Pro Display&quot;,&quot;SF Pro Text&quot;,Helvetica,sans-serif;text-anchor:end;" transform="matrix(1 0 0 1 3036 1951)">Requires Xcode 12 or greater</text>
  <text style="stroke:none;fill:black;font-family:-apple-system,&quot;SF Pro Display&quot;,&quot;SF Pro Text&quot;,Helvetica,sans-serif;text-anchor:end;" transform="matrix(1 0 0 1 3036 1969)">Generated from square.split.bottomrightquarter</text>
  <text style="stroke:none;fill:black;font-family:-apple-system,&quot;SF Pro Display&quot;,&quot;SF Pro Text&quot;,Helvetica,sans-serif;text-anchor:end;" transform="matrix(1 0 0 1 3036 1987)">Typeset at 100 points</text>
  <text style="stroke:none;fill:black;font-family:-apple-system,&quot;SF Pro Display&quot;,&quot;SF Pro Text&quot;,Helvetica,sans-serif;" transform="matrix(1 0 0 1 263 726)">Small</text>
  <text style="stroke:none;fill:black;font-family:-apple-system,&quot;SF Pro Display&quot;,&quot;SF Pro Text&quot;,Helvetica,sans-serif;" transform="matrix(1 0 0 1 263 1156)">Medium</text>
  <text style="stroke:none;fill:black;font-family:-apple-system,&quot;SF Pro Display&quot;,&quot;SF Pro Text&quot;,Helvetica,sans-serif;" transform="matrix(1 0 0 1 263 1586)">Large</text>
 </g>
 <g id="Guides">
  <g id="H-reference" style="fill:#27AAE1;stroke:none;" transform="matrix(1 0 0 1 339 696)">
   <path d="M0.976562 0L3.66211 0L12.9883-24.4629L45.752-24.4629L55.127 0L57.7637 0L30.6152-70.459L28.125-70.459ZM29.3457-67.1387L29.4434-67.1387L44.873-26.709L13.8672-26.709Z"/>
  </g>
  <line id="Baseline-S" style="fill:none;stroke:#27AAE1;opacity:1;stroke-width:0.5;" x1="263" x2="3036" y1="696" y2="696"/>
  <line id="Capline-S" style="fill:none;stroke:#27AAE1;opacity:1;stroke-width:0.5;" x1="263" x2="3036" y1="625.541" y2="625.541"/>
  <g id="H-reference" style="fill:#27AAE1;stroke:none;" transform="matrix(1 0 0 1 339 1126)">
   <path d="M0.976562 0L3.66211 0L12.9883-24.4629L45.752-24.4629L55.127 0L57.7637 0L30.6152-70.459L28.125-70.459ZM29.3457-67.1387L29.4434-67.1387L44.873-26.709L13.8672-26.709Z"/>
  </g>
  <line id="Baseline-M" style="fill:none;stroke:#27AAE1;opacity:1;stroke-width:0.5;" x1="263" x2="3036" y1="1126" y2="1126"/>
  <line id="Capline-M" style="fill:none;stroke:#27AAE1;opacity:1;stroke-width:0.5;" x1="263" x2="3036" y1="1055.54" y2="1055.54"/>
  <g id="H-reference" style="fill:#27AAE1;stroke:none;" transform="matrix(1 0 0 1 339 1556)">
   <path d="M0.976562 0L3.66211 0L12.9883-24.4629L45.752-24.4629L55.127 0L57.7637 0L30.6152-70.459L28.125-70.459ZM29.3457-67.1387L29.4434-67.1387L44.873-26.709L13.8672-26.709Z"/>
  </g>
  <line id="Baseline-L" style="fill:none;stroke:#27AAE1;opacity:1;stroke-width:0.5;" x1="263" x2="3036" y1="1556" y2="1556"/>
  <line id="Capline-L" style="fill:none;stroke:#27AAE1;opacity:1;stroke-width:0.5;" x1="263" x2="3036" y1="1485.54" y2="1485.54"/>
  <line id="left-margin" style="fill:none;stroke:#00AEEF;stroke-width:0.5;opacity:1.0;" x1="1386.34" x2="1386.34" y1="1030.79" y2="1150.12"/>
  <line id="right-margin" style="fill:none;stroke:#00AEEF;stroke-width:0.5;opacity:1.0;" x1="1513.35" x2="1513.35" y1="1030.79" y2="1150.12"/>
 </g>
 <g id="Symbols">
  <g id="Black-L" transform="matrix(1 0 0 1 2847 1556)">
   <path d="M39.9902 34.668L132.812 34.668C148.096 34.668 156.738 26.0742 156.738 10.8398L156.738-81.25C156.738-96.4355 148.096-105.078 132.812-105.078L39.9902-105.078C24.7559-105.078 16.0645-96.4355 16.0645-81.25L16.0645 10.8398C16.0645 26.0742 24.7559 34.668 39.9902 34.668ZM42.6758 14.4531C38.4766 14.4531 36.3281 12.5488 36.3281 8.00781L36.3281-78.3691C36.3281-82.9102 38.4766-84.8145 42.6758-84.8145L130.078-84.8145C134.326-84.8145 136.475-82.9102 136.475-78.3691L136.475-47.8027L101.318-47.8027C86.2793-47.8027 77.3926-39.0137 77.3926-24.2188L77.3926 14.4531ZM130.078 14.4531L97.6074 14.4531L97.6074-21.3379C97.6074-25.6836 99.8535-27.5391 104.053-27.5391L136.475-27.5391L136.475 8.00781C136.475 12.5488 134.326 14.4531 130.078 14.4531Z"/>
  </g>
  <g id="Heavy-L" transform="matrix(1 0 0 1 2551.7 1556)">
   <path d="M38.8184 33.252L131.152 33.252C145.801 33.252 153.906 25.1953 153.906 10.6445L153.906-81.0059C153.906-95.5566 145.801-103.613 131.152-103.613L38.8184-103.613C24.2188-103.613 16.0645-95.5566 16.0645-81.0059L16.0645 10.6445C16.0645 25.1953 24.2188 33.252 38.8184 33.252ZM40.918 15.7715C36.084 15.7715 33.5938 13.4766 33.5938 8.34961L33.5938-78.7109C33.5938-83.8379 36.084-86.1328 40.918-86.1328L129.004-86.1328C133.838-86.1328 136.377-83.8379 136.377-78.7109L136.377-46.582L99.3164-46.582C85.1074-46.582 76.6602-38.3301 76.6602-24.3652L76.6602 15.7715ZM129.004 15.7715L94.1406 15.7715L94.1406-22.0703C94.1406-26.8066 96.7285-29.0527 101.416-29.0527L136.377-29.0527L136.377 8.34961C136.377 13.4766 133.838 15.7715 129.004 15.7715Z"/>
  </g>
  <g id="Bold-L" transform="matrix(1 0 0 1 2256.58 1556)">
   <path d="M37.5 31.6895L129.297 31.6895C143.213 31.6895 150.732 24.2188 150.732 10.4004L150.732-80.7129C150.732-94.5312 143.213-102.051 129.297-102.051L37.5-102.051C23.6328-102.051 16.0645-94.5801 16.0645-80.7129L16.0645 10.4004C16.0645 24.2188 23.6328 31.6895 37.5 31.6895ZM38.9648 17.2363C33.4473 17.2363 30.5176 14.502 30.5176 8.74023L30.5176-79.0527C30.5176-84.8633 33.4473-87.5977 38.9648-87.5977L127.832-87.5977C133.301-87.5977 136.279-84.8633 136.279-79.0527L136.279-45.2148L97.0215-45.2148C83.7402-45.2148 75.8301-37.5 75.8301-24.5605L75.8301 17.2363ZM127.832 17.2363L90.2832 17.2363L90.2832-22.9004C90.2832-28.0762 93.2129-30.7617 98.4863-30.7617L136.279-30.7617L136.279 8.74023C136.279 14.502 133.301 17.2363 127.832 17.2363Z"/>
  </g>
  <g id="Semibold-L" transform="matrix(1 0 0 1 1960.97 1556)">
   <path d="M36.6211 30.6152L127.979 30.6152C141.455 30.6152 148.535 23.5352 148.535 10.2051L148.535-80.5664C148.535-93.8477 141.455-100.977 127.979-100.977L36.6211-100.977C23.1934-100.977 16.0645-93.8965 16.0645-80.5664L16.0645 10.2051C16.0645 23.584 23.1934 30.6152 36.6211 30.6152ZM37.5977 18.2617C31.6406 18.2617 28.418 15.2344 28.418 8.98438L28.418-79.3457C28.418-85.5469 31.6406-88.623 37.5977-88.623L127.002-88.623C132.91-88.623 136.23-85.5469 136.23-79.3457L136.23-44.2871L95.459-44.2871C82.8125-44.2871 75.2441-36.9629 75.2441-24.707L75.2441 18.2617ZM127.002 18.2617L87.5977 18.2617L87.5977-23.4863C87.5977-28.9062 90.8203-31.9336 96.4844-31.9336L136.23-31.9336L136.23 8.98438C136.23 15.2344 132.91 18.2617 127.002 18.2617Z"/>
  </g>
  <g id="Medium-L" transform="matrix(1 0 0 1 1665.09 1556)">
   <path d="M35.9375 29.7852L127.002 29.7852C140.137 29.7852 146.875 22.998 146.875 10.0586L146.875-80.4199C146.875-93.3594 140.137-100.146 127.002-100.146L35.9375-100.146C22.9004-100.146 16.0645-93.4082 16.0645-80.4199L16.0645 10.0586C16.0645 23.0469 22.9004 29.7852 35.9375 29.7852ZM36.5723 19.043C30.2246 19.043 26.8066 15.7715 26.8066 9.17969L26.8066-79.541C26.8066-86.084 30.2246-89.4043 36.5723-89.4043L126.367-89.4043C132.617-89.4043 136.182-86.084 136.182-79.541L136.182-43.5547L94.2871-43.5547C82.0801-43.5547 74.8047-36.5723 74.8047-24.8047L74.8047 19.043ZM126.367 19.043L85.5469 19.043L85.5469-23.877C85.5469-29.5898 89.0137-32.8125 94.9219-32.8125L136.182-32.8125L136.182 9.17969C136.182 15.7715 132.617 19.043 126.367 19.043Z"/>
  </g>
  <g id="Regular-L" transform="matrix(1 0 0 1 1369.45 1556)">
   <path d="M35.0586 28.7109L125.732 28.7109C138.379 28.7109 144.727 22.3633 144.727 9.91211L144.727-80.2246C144.727-92.6758 138.379-99.0234 125.732-99.0234L35.0586-99.0234C22.4609-99.0234 16.0645-92.7246 16.0645-80.2246L16.0645 9.91211C16.0645 22.4121 22.4609 28.7109 35.0586 28.7109ZM35.2539 20.0684C28.418 20.0684 24.707 16.4551 24.707 9.47266L24.707-79.7852C24.707-86.7676 28.418-90.3809 35.2539-90.3809L125.586-90.3809C132.275-90.3809 136.084-86.7676 136.084-79.7852L136.084-42.627L92.7734-42.627C81.1523-42.627 74.2676-36.0352 74.2676-24.9023L74.2676 20.0684ZM125.586 20.0684L82.9102 20.0684L82.9102-24.4629C82.9102-30.4688 86.6211-33.9844 92.9199-33.9844L136.084-33.9844L136.084 9.47266C136.084 16.4551 132.275 20.0684 125.586 20.0684Z"/>
  </g>
  <g id="Light-L" transform="matrix(1 0 0 1 1074.84 1556)">
   <path d="M34.0332 27.002L122.559 27.002C134.424 27.002 140.527 20.8496 140.527 9.13086L140.527-79.3945C140.527-91.1133 134.424-97.2656 122.559-97.2656L34.0332-97.2656C22.168-97.2656 16.0645-91.2109 16.0645-79.3945L16.0645 9.13086C16.0645 20.9473 22.168 27.002 34.0332 27.002ZM34.1797 20.3613C26.709 20.3613 22.7051 16.4062 22.7051 8.78906L22.7051-79.0527C22.7051-86.7188 26.709-90.625 34.1797-90.625L122.412-90.625C129.688-90.625 133.887-86.7188 133.887-79.0527L133.887-41.3574L90.1367-41.3574C79.4434-41.3574 73.0957-35.1562 73.0957-24.8047L73.0957 20.3613ZM122.412 20.3613L79.7363 20.3613L79.7363-24.4629C79.7363-30.9082 83.6426-34.7168 90.332-34.7168L133.887-34.7168L133.887 8.78906C133.887 16.4062 129.688 20.3613 122.412 20.3613Z"/>
  </g>
  <g id="Thin-L" transform="matrix(1 0 0 1 780.91 1556)">
   <path d="M32.666 24.707L118.359 24.707C129.248 24.707 134.961 18.7988 134.961 8.10547L134.961-78.3203C134.961-89.0625 129.248-94.9219 118.359-94.9219L32.666-94.9219C21.7773-94.9219 16.0645-89.209 16.0645-78.3203L16.0645 8.10547C16.0645 18.9453 21.7773 24.707 32.666 24.707ZM32.8125 20.752C24.4141 20.752 19.9707 16.3574 19.9707 7.91016L19.9707-78.125C19.9707-86.6211 24.4141-90.9668 32.8125-90.9668L118.164-90.9668C126.318-90.9668 131.006-86.6211 131.006-78.125L131.006-39.6484L86.7188-39.6484C77.1973-39.6484 71.582-34.0332 71.582-24.6094L71.582 20.752ZM118.164 20.752L75.4883 20.752L75.4883-24.4141C75.4883-31.543 79.6875-35.7422 86.8652-35.7422L131.006-35.7422L131.006 7.91016C131.006 16.3574 126.318 20.752 118.164 20.752Z"/>
  </g>
  <g id="Ultralight-L" transform="matrix(1 0 0 1 485.639 1556)">
   <path d="M31.9824 23.5352L116.211 23.5352C126.562 23.5352 132.08 17.7734 132.08 7.56836L132.08-77.7832C132.08-87.9883 126.562-93.7012 116.211-93.7012L31.9824-93.7012C21.582-93.7012 16.0645-88.1836 16.0645-77.7832L16.0645 7.56836C16.0645 17.9688 21.582 23.5352 31.9824 23.5352ZM32.1289 20.9473C23.1934 20.9473 18.6035 16.3574 18.6035 7.4707L18.6035-77.6855C18.6035-86.5723 23.1934-91.1621 32.1289-91.1621L116.016-91.1621C124.609-91.1621 129.541-86.5723 129.541-77.6855L129.541-38.7695L84.9121-38.7695C76.0742-38.7695 70.752-33.4473 70.752-24.5117L70.752 20.9473ZM116.016 20.9473L73.3398 20.9473L73.3398-24.4141C73.3398-31.8848 77.6367-36.2305 85.1074-36.2305L129.541-36.2305L129.541 7.4707C129.541 16.3574 124.609 20.9473 116.016 20.9473Z"/>
  </g>
  <g id="Black-M" transform="matrix(1 0 0 1 2865.68 1126)">
   <path d="M31.9824 19.9219L103.467 19.9219C115.723 19.9219 122.998 12.6465 122.998 0.390625L122.998-70.752C122.998-83.0078 115.723-90.332 103.467-90.332L31.9824-90.332C19.7266-90.332 12.4512-83.0078 12.4512-70.752L12.4512 0.390625C12.4512 12.6465 19.7266 19.9219 31.9824 19.9219ZM34.9121 1.61133C32.0801 1.61133 30.7617 0.537109 30.7617-2.53906L30.7617-67.8711C30.7617-70.9473 32.0801-72.0215 34.9121-72.0215L100.537-72.0215C103.369-72.0215 104.736-70.9473 104.736-67.8711L104.736-45.9473L79.8828-45.9473C67.627-45.9473 60.3516-38.6719 60.3516-26.3672L60.3516 1.61133ZM100.537 1.61133L78.6133 1.61133L78.6133-23.4375C78.6133-26.5625 79.9805-27.6367 82.8125-27.6367L104.736-27.6367L104.736-2.53906C104.736 0.537109 103.369 1.61133 100.537 1.61133Z"/>
  </g>
  <g id="Heavy-M" transform="matrix(1 0 0 1 2569.94 1126)">
   <path d="M31.0059 18.8477L102.49 18.8477C114.258 18.8477 121.045 12.0605 121.045 0.341797L121.045-70.7031C121.045-82.4707 114.258-89.209 102.49-89.209L31.0059-89.209C19.2383-89.209 12.4512-82.4707 12.4512-70.7031L12.4512 0.341797C12.4512 12.0605 19.2383 18.8477 31.0059 18.8477ZM33.252 2.97852C29.9316 2.97852 28.2715 1.5625 28.2715-2.00195L28.2715-68.4082C28.2715-71.9238 29.9316-73.3887 33.252-73.3887L100.195-73.3887C103.516-73.3887 105.176-71.9238 105.176-68.4082L105.176-44.9219L78.3203-44.9219C66.748-44.9219 59.8633-38.1348 59.8633-26.6113L59.8633 2.97852ZM100.195 2.97852L75.6836 2.97852L75.6836-24.2676C75.6836-27.6855 77.3438-29.1016 80.6152-29.1016L105.176-29.1016L105.176-2.00195C105.176 1.5625 103.516 2.97852 100.195 2.97852Z"/>
  </g>
  <g id="Bold-M" transform="matrix(1 0 0 1 2274.35 1126)">
   <path d="M29.8828 17.627L101.367 17.627C112.598 17.627 118.799 11.4258 118.799 0.292969L118.799-70.6543C118.799-81.8359 112.598-87.9883 101.367-87.9883L29.8828-87.9883C18.6523-87.9883 12.4512-81.8359 12.4512-70.6543L12.4512 0.292969C12.4512 11.4746 18.6523 17.627 29.8828 17.627ZM31.3965 4.54102C27.5391 4.54102 25.5371 2.68555 25.5371-1.36719L25.5371-68.9941C25.5371-73.0957 27.5391-74.9023 31.3965-74.9023L99.8535-74.9023C103.662-74.9023 105.713-73.0957 105.713-68.9941L105.713-43.7988L76.6113-43.7988C65.7227-43.7988 59.2773-37.5 59.2773-26.8555L59.2773 4.54102ZM99.8535 4.54102L72.3633 4.54102L72.3633-25.1953C72.3633-28.9062 74.4141-30.7129 78.125-30.7129L105.713-30.7129L105.713-1.36719C105.713 2.68555 103.662 4.54102 99.8535 4.54102Z"/>
  </g>
  <g id="Semibold-M" transform="matrix(1 0 0 1 1978.42 1126)">
   <path d="M29.1016 16.7969L100.586 16.7969C111.475 16.7969 117.236 10.9863 117.236 0.244141L117.236-70.6543C117.236-81.3965 111.475-87.1582 100.586-87.1582L29.1016-87.1582C18.2617-87.1582 12.4512-81.3965 12.4512-70.6543L12.4512 0.244141C12.4512 11.0352 18.2617 16.7969 29.1016 16.7969ZM30.127 5.61523C25.8789 5.61523 23.6328 3.4668 23.6328-0.976562L23.6328-69.4336C23.6328-73.877 25.8789-75.9766 30.127-75.9766L99.5605-75.9766C103.76-75.9766 106.104-73.877 106.104-69.4336L106.104-43.0176L75.4395-43.0176C65.0391-43.0176 58.8867-37.0605 58.8867-27.002L58.8867 5.61523ZM99.5605 5.61523L70.0684 5.61523L70.0684-25.7812C70.0684-29.7363 72.3633-31.8359 76.4648-31.8359L106.104-31.8359L106.104-0.976562C106.104 3.4668 103.76 5.61523 99.5605 5.61523Z"/>
  </g>
  <g id="Medium-M" transform="matrix(1 0 0 1 1682.27 1126)">
   <path d="M28.5156 16.1621L100 16.1621C110.596 16.1621 116.113 10.6934 116.113 0.244141L116.113-70.6055C116.113-81.0547 110.596-86.5234 100-86.5234L28.5156-86.5234C17.9688-86.5234 12.4512-81.0547 12.4512-70.6055L12.4512 0.244141C12.4512 10.6934 17.9688 16.1621 28.5156 16.1621ZM29.1504 6.39648C24.6582 6.39648 22.168 4.05273 22.168-0.634766L22.168-69.7266C22.168-74.4629 24.6582-76.8066 29.1504-76.8066L99.3652-76.8066C103.857-76.8066 106.348-74.4629 106.348-69.7266L106.348-42.4316L74.5605-42.4316C64.5508-42.4316 58.5938-36.7676 58.5938-27.1484L58.5938 6.39648ZM99.3652 6.39648L68.3594 6.39648L68.3594-26.2695C68.3594-30.4199 70.8496-32.7148 75.1465-32.7148L106.348-32.7148L106.348-0.634766C106.348 4.05273 103.857 6.39648 99.3652 6.39648Z"/>
  </g>
  <g id="Regular-M" transform="matrix(1 0 0 1 1386.34 1126)">
   <path d="M27.7832 15.332L99.2676 15.332C109.473 15.332 114.551 10.2539 114.551 0.195312L114.551-70.5566C114.551-80.6152 109.473-85.6934 99.2676-85.6934L27.7832-85.6934C17.5781-85.6934 12.4512-80.6641 12.4512-70.5566L12.4512 0.195312C12.4512 10.2539 17.5781 15.332 27.7832 15.332ZM27.8809 7.4707C22.998 7.4707 20.3125 4.83398 20.3125-0.244141L20.3125-70.166C20.3125-75.1953 22.998-77.832 27.8809-77.832L99.1211-77.832C103.955-77.832 106.689-75.1953 106.689-70.166L106.689-41.6992L73.3887-41.6992C63.8672-41.6992 58.2031-36.3281 58.2031-27.2949L58.2031 7.4707ZM99.1211 7.4707L66.0645 7.4707L66.0645-26.9043C66.0645-31.25 68.8477-33.8379 73.4863-33.8379L106.689-33.8379L106.689-0.244141C106.689 4.83398 103.955 7.4707 99.1211 7.4707Z"/>
  </g>
  <g id="Light-M" transform="matrix(1 0 0 1 1091.51 1126)">
   <path d="M26.8555 13.7695L96.3867 13.7695C105.957 13.7695 110.791 8.88672 110.791-0.488281L110.791-69.8242C110.791-79.248 105.957-84.082 96.3867-84.082L26.8555-84.082C17.334-84.082 12.4512-79.2969 12.4512-69.8242L12.4512-0.488281C12.4512 8.93555 17.334 13.7695 26.8555 13.7695ZM26.9531 7.71484C21.4844 7.71484 18.5059 4.83398 18.5059-0.830078L18.5059-69.5312C18.5059-75.1465 21.4844-78.0762 26.9531-78.0762L96.2891-78.0762C101.66-78.0762 104.736-75.1465 104.736-69.5312L104.736-40.5273L71.0449-40.5273C62.3535-40.5273 57.1777-35.5469 57.1777-27.1973L57.1777 7.71484ZM96.2891 7.71484L63.2324 7.71484L63.2324-26.8555C63.2324-31.6895 66.1621-34.5215 71.1426-34.5215L104.736-34.5215L104.736-0.830078C104.736 4.83398 101.66 7.71484 96.2891 7.71484Z"/>
  </g>
  <g id="Thin-M" transform="matrix(1 0 0 1 797.291 1126)">
   <path d="M25.6348 11.7188L92.627 11.7188C101.27 11.7188 105.811 7.08008 105.811-1.41602L105.811-68.8477C105.811-77.3926 101.27-81.9824 92.627-81.9824L25.6348-81.9824C16.9922-81.9824 12.4512-77.4902 12.4512-68.8477L12.4512-1.41602C12.4512 7.17773 16.9922 11.7188 25.6348 11.7188ZM25.7324 8.05664C19.3848 8.05664 16.0645 4.78516 16.0645-1.61133L16.0645-68.7012C16.0645-75.0488 19.3848-78.3691 25.7324-78.3691L92.4805-78.3691C98.6328-78.3691 102.148-75.0488 102.148-68.7012L102.148-39.0137L67.9199-39.0137C60.3516-39.0137 55.8105-34.5703 55.8105-27.0508L55.8105 8.05664ZM92.4805 8.05664L59.4238 8.05664L59.4238-26.8555C59.4238-32.2266 62.5977-35.4004 68.0664-35.4004L102.148-35.4004L102.148-1.61133C102.148 4.78516 98.6328 8.05664 92.4805 8.05664Z"/>
  </g>
  <g id="Ultralight-M" transform="matrix(1 0 0 1 501.874 1126)">
   <path d="M25 10.6445L90.6738 10.6445C98.877 10.6445 103.223 6.15234 103.223-1.9043L103.223-68.3594C103.223-76.4648 98.877-80.9082 90.6738-80.9082L25-80.9082C16.7969-80.9082 12.4512-76.5625 12.4512-68.3594L12.4512-1.9043C12.4512 6.29883 16.7969 10.6445 25 10.6445ZM25.0977 8.25195C18.3594 8.25195 14.8438 4.73633 14.8438-2.00195L14.8438-68.2617C14.8438-75 18.3594-78.5156 25.0977-78.5156L90.5762-78.5156C97.0703-78.5156 100.83-75 100.83-68.2617L100.83-38.2324L66.3574-38.2324C59.2773-38.2324 55.0781-34.0332 55.0781-26.9531L55.0781 8.25195ZM90.5762 8.25195L57.4707 8.25195L57.4707-26.8555C57.4707-32.5195 60.791-35.8398 66.5039-35.8398L100.83-35.8398L100.83-2.00195C100.83 4.73633 97.0703 8.25195 90.5762 8.25195Z"/>
  </g>
  <g id="Black-S" transform="matrix(1 0 0 1 2880.37 696)">
   <path d="M25 7.91016L81.0547 7.91016C90.625 7.91016 96.2891 2.24609 96.2891-7.32422L96.2891-63.0859C96.2891-72.6562 90.625-78.3203 81.0547-78.3203L25-78.3203C15.4297-78.3203 9.76562-72.6562 9.76562-63.0859L9.76562-7.32422C9.76562 2.24609 15.4297 7.91016 25 7.91016ZM27.2461-6.25C25-6.25 23.9258-7.12891 23.9258-9.57031L23.9258-60.8398C23.9258-63.2812 25-64.1602 27.2461-64.1602L78.8086-64.1602C81.0547-64.1602 82.1289-63.2812 82.1289-60.8398L82.1289-43.5547L62.5-43.5547C52.9297-43.5547 47.2656-37.8906 47.2656-28.3203L47.2656-6.25ZM78.8086-6.25L61.4258-6.25L61.4258-26.0742C61.4258-28.5156 62.5-29.3945 64.7461-29.3945L82.1289-29.3945L82.1289-9.57031C82.1289-7.12891 81.0547-6.25 78.8086-6.25Z"/>
  </g>
  <g id="Heavy-S" transform="matrix(1 0 0 1 2584.22 696)">
   <path d="M24.3652 7.27539L80.6152 7.27539C89.8926 7.27539 95.166 1.95312 95.166-7.27539L95.166-63.1348C95.166-72.3633 89.8926-77.6855 80.6152-77.6855L24.3652-77.6855C15.0879-77.6855 9.76562-72.3633 9.76562-63.1348L9.76562-7.27539C9.76562 1.95312 15.0879 7.27539 24.3652 7.27539ZM26.0742-5.22461C23.5352-5.22461 22.2656-6.34766 22.2656-9.08203L22.2656-61.3281C22.2656-64.0625 23.5352-65.1855 26.0742-65.1855L78.8574-65.1855C81.3965-65.1855 82.7148-64.0625 82.7148-61.3281L82.7148-42.9199L61.5723-42.9199C52.4414-42.9199 46.9727-37.5488 46.9727-28.5156L46.9727-5.22461ZM78.8574-5.22461L59.4727-5.22461L59.4727-26.709C59.4727-29.2969 60.791-30.4199 63.3301-30.4199L82.7148-30.4199L82.7148-9.08203C82.7148-6.34766 81.3965-5.22461 78.8574-5.22461Z"/>
  </g>
  <g id="Bold-S" transform="matrix(1 0 0 1 2288.12 696)">
   <path d="M23.6328 6.54297L80.0781 6.54297C89.0625 6.54297 93.9453 1.66016 93.9453-7.22656L93.9453-63.1836C93.9453-72.0703 89.0625-76.9043 80.0781-76.9043L23.6328-76.9043C14.6973-76.9043 9.76562-72.0703 9.76562-63.1836L9.76562-7.22656C9.76562 1.66016 14.6973 6.54297 23.6328 6.54297ZM24.8047-4.10156C21.9238-4.10156 20.3613-5.46875 20.3613-8.54492L20.3613-61.8652C20.3613-64.9414 21.9238-66.3086 24.8047-66.3086L78.9062-66.3086C81.7871-66.3086 83.3496-64.9414 83.3496-61.8652L83.3496-42.1875L60.5469-42.1875C51.8555-42.1875 46.6797-37.1582 46.6797-28.7109L46.6797-4.10156ZM78.9062-4.10156L57.2754-4.10156L57.2754-27.3926C57.2754-30.2246 58.8867-31.5918 61.7188-31.5918L83.3496-31.5918L83.3496-8.54492C83.3496-5.46875 81.7871-4.10156 78.9062-4.10156Z"/>
  </g>
  <g id="Semibold-S" transform="matrix(1 0 0 1 1991.83 696)">
   <path d="M23.0957 6.00586L79.7363 6.00586C88.4766 6.00586 93.1152 1.41602 93.1152-7.17773L93.1152-63.2324C93.1152-71.8262 88.4766-76.416 79.7363-76.416L23.0957-76.416C14.4043-76.416 9.76562-71.8262 9.76562-63.2324L9.76562-7.17773C9.76562 1.41602 14.4043 6.00586 23.0957 6.00586ZM23.877-3.27148C20.752-3.27148 19.0918-4.88281 19.0918-8.1543L19.0918-62.2559C19.0918-65.5273 20.752-67.1387 23.877-67.1387L78.9551-67.1387C82.0801-67.1387 83.7891-65.5273 83.7891-62.2559L83.7891-41.6992L59.8633-41.6992C51.4648-41.6992 46.4844-36.9141 46.4844-28.8574L46.4844-3.27148ZM78.9551-3.27148L55.8105-3.27148L55.8105-27.8809C55.8105-30.8105 57.5684-32.373 60.6445-32.373L83.7891-32.373L83.7891-8.1543C83.7891-4.88281 82.0801-3.27148 78.9551-3.27148Z"/>
  </g>
  <g id="Medium-S" transform="matrix(1 0 0 1 1695.46 696)">
   <path d="M22.7051 5.61523L79.4922 5.61523C88.0371 5.61523 92.4316 1.26953 92.4316-7.17773L92.4316-63.2324C92.4316-71.6797 88.0371-76.0254 79.4922-76.0254L22.7051-76.0254C14.209-76.0254 9.76562-71.6797 9.76562-63.2324L9.76562-7.17773C9.76562 1.26953 14.209 5.61523 22.7051 5.61523ZM23.1934-2.68555C19.9219-2.68555 18.0664-4.39453 18.0664-7.86133L18.0664-62.5C18.0664-66.0156 19.9219-67.7246 23.1934-67.7246L79.0039-67.7246C82.2754-67.7246 84.1309-66.0156 84.1309-62.5L84.1309-41.3086L59.3262-41.3086C51.1719-41.3086 46.3379-36.7188 46.3379-28.9551L46.3379-2.68555ZM79.0039-2.68555L54.6387-2.68555L54.6387-28.2227C54.6387-31.2988 56.543-33.0078 59.8145-33.0078L84.1309-33.0078L84.1309-7.86133C84.1309-4.39453 82.2754-2.68555 79.0039-2.68555Z"/>
  </g>
  <g id="Regular-S" transform="matrix(1 0 0 1 1399.16 696)">
   <path d="M22.2168 5.12695L79.1504 5.12695C87.5 5.12695 91.6016 1.07422 91.6016-7.12891L91.6016-63.2812C91.6016-71.4844 87.5-75.5371 79.1504-75.5371L22.2168-75.5371C13.916-75.5371 9.76562-71.4844 9.76562-63.2812L9.76562-7.12891C9.76562 1.07422 13.916 5.12695 22.2168 5.12695ZM22.3145-1.9043C18.7988-1.9043 16.7969-3.80859 16.7969-7.51953L16.7969-62.8906C16.7969-66.6016 18.7988-68.5059 22.3145-68.5059L79.0527-68.5059C82.5684-68.5059 84.5703-66.6016 84.5703-62.8906L84.5703-40.8203L58.6426-40.8203C50.7812-40.8203 46.1426-36.4746 46.1426-29.1016L46.1426-1.9043ZM79.0527-1.9043L53.1738-1.9043L53.1738-28.7109C53.1738-31.8848 55.2246-33.7891 58.7402-33.7891L84.5703-33.7891L84.5703-7.51953C84.5703-3.80859 82.5684-1.9043 79.0527-1.9043Z"/>
  </g>
  <g id="Light-S" transform="matrix(1 0 0 1 1104.11 696)">
   <path d="M21.3867 3.75977L76.6113 3.75977C84.375 3.75977 88.2812-0.146484 88.2812-7.76367L88.2812-62.5977C88.2812-70.2148 84.375-74.1211 76.6113-74.1211L21.3867-74.1211C13.6719-74.1211 9.76562-70.2637 9.76562-62.5977L9.76562-7.76367C9.76562-0.0976562 13.6719 3.75977 21.3867 3.75977ZM21.4844-1.66016C17.4316-1.66016 15.1855-3.85742 15.1855-8.05664L15.1855-62.3535C15.1855-66.5527 17.4316-68.7012 21.4844-68.7012L76.5137-68.7012C80.5176-68.7012 82.8125-66.5527 82.8125-62.3535L82.8125-39.8438L56.543-39.8438C49.4629-39.8438 45.2148-35.791 45.2148-29.0039L45.2148-1.66016ZM76.5137-1.66016L50.6348-1.66016L50.6348-28.7109C50.6348-32.2754 52.8809-34.375 56.6406-34.375L82.8125-34.375L82.8125-8.05664C82.8125-3.85742 80.5176-1.66016 76.5137-1.66016Z"/>
  </g>
  <g id="Thin-S" transform="matrix(1 0 0 1 809.62 696)">
   <path d="M20.3125 1.95312L73.291 1.95312C80.2246 1.95312 83.8379-1.70898 83.8379-8.54492L83.8379-61.7676C83.8379-68.6035 80.2246-72.2656 73.291-72.2656L20.3125-72.2656C13.3789-72.2656 9.76562-68.7012 9.76562-61.7676L9.76562-8.54492C9.76562-1.66016 13.3789 1.95312 20.3125 1.95312ZM20.4102-1.36719C15.625-1.36719 13.0859-3.85742 13.0859-8.74023L13.0859-61.6211C13.0859-66.4551 15.625-68.9453 20.4102-68.9453L73.1934-68.9453C77.8809-68.9453 80.5664-66.4551 80.5664-61.6211L80.5664-38.4766L53.8086-38.4766C47.6562-38.4766 43.9941-34.9121 43.9941-28.8574L43.9941-1.36719ZM73.1934-1.36719L47.2656-1.36719L47.2656-28.6621C47.2656-32.7637 49.7559-35.2051 53.9062-35.2051L80.5664-35.2051L80.5664-8.74023C80.5664-3.85742 77.8809-1.36719 73.1934-1.36719Z"/>
  </g>
  <g id="Ultralight-S" transform="matrix(1 0 0 1 514.032 696)">
   <path d="M19.7754 0.976562L71.582 0.976562C78.125 0.976562 81.5918-2.53906 81.5918-8.98438L81.5918-61.3281C81.5918-67.7734 78.125-71.2891 71.582-71.2891L19.7754-71.2891C13.2324-71.2891 9.76562-67.8711 9.76562-61.3281L9.76562-8.98438C9.76562-2.44141 13.2324 0.976562 19.7754 0.976562ZM19.873-1.2207C14.6484-1.2207 11.9629-3.90625 11.9629-9.08203L11.9629-61.2305C11.9629-66.4062 14.6484-69.0918 19.873-69.0918L71.4844-69.0918C76.4648-69.0918 79.3945-66.4062 79.3945-61.2305L79.3945-37.793L52.4414-37.793C46.7285-37.793 43.3594-34.4238 43.3594-28.7598L43.3594-1.2207ZM71.4844-1.2207L45.5566-1.2207L45.5566-28.6621C45.5566-33.0566 48.1445-35.5957 52.5391-35.5957L79.3945-35.5957L79.3945-9.08203C79.3945-3.90625 76.4648-1.2207 71.4844-1.2207Z"/>
  </g>
 </g>
</svg>
