<?xml version="1.0" encoding="UTF-8"?>
<!--Generator: Apple Native CoreSVG 149-->
<!DOCTYPE svg
PUBLIC "-//W3C//DTD SVG 1.1//EN"
       "http://www.w3.org/Graphics/SVG/1.1/DTD/svg11.dtd">
<svg version="1.1" xmlns="http://www.w3.org/2000/svg" xmlns:xlink="http://www.w3.org/1999/xlink" width="3300" height="2200">
 <!--glyph: "uni100723.medium", point size: 100.000000, font version: "Version 16.0d18e1", template writer version: "8"-->
 <g id="Notes">
  <rect height="2200" id="artboard" style="fill:white;opacity:1" width="3300" x="0" y="0"/>
  <line id="" style="fill:none;stroke:black;opacity:1;stroke-width:0.5;" x1="263" x2="3036" y1="292" y2="292"/>
  <text style="stroke:none;fill:black;font-family:-apple-system,&quot;SF Pro Display&quot;,&quot;SF Pro Text&quot;,Helvetica,sans-serif;font-weight:bold;" transform="matrix(1 0 0 1 263 322)">Weight/Scale Variations</text>
  <text style="stroke:none;fill:black;font-family:-apple-system,&quot;SF Pro Display&quot;,&quot;SF Pro Text&quot;,Helvetica,sans-serif;text-anchor:middle;" transform="matrix(1 0 0 1 559.711 322)">Ultralight</text>
  <text style="stroke:none;fill:black;font-family:-apple-system,&quot;SF Pro Display&quot;,&quot;SF Pro Text&quot;,Helvetica,sans-serif;text-anchor:middle;" transform="matrix(1 0 0 1 856.422 322)">Thin</text>
  <text style="stroke:none;fill:black;font-family:-apple-system,&quot;SF Pro Display&quot;,&quot;SF Pro Text&quot;,Helvetica,sans-serif;text-anchor:middle;" transform="matrix(1 0 0 1 1153.13 322)">Light</text>
  <text style="stroke:none;fill:black;font-family:-apple-system,&quot;SF Pro Display&quot;,&quot;SF Pro Text&quot;,Helvetica,sans-serif;text-anchor:middle;" transform="matrix(1 0 0 1 1449.84 322)">Regular</text>
  <text style="stroke:none;fill:black;font-family:-apple-system,&quot;SF Pro Display&quot;,&quot;SF Pro Text&quot;,Helvetica,sans-serif;text-anchor:middle;" transform="matrix(1 0 0 1 1746.56 322)">Medium</text>
  <text style="stroke:none;fill:black;font-family:-apple-system,&quot;SF Pro Display&quot;,&quot;SF Pro Text&quot;,Helvetica,sans-serif;text-anchor:middle;" transform="matrix(1 0 0 1 2043.27 322)">Semibold</text>
  <text style="stroke:none;fill:black;font-family:-apple-system,&quot;SF Pro Display&quot;,&quot;SF Pro Text&quot;,Helvetica,sans-serif;text-anchor:middle;" transform="matrix(1 0 0 1 2339.98 322)">Bold</text>
  <text style="stroke:none;fill:black;font-family:-apple-system,&quot;SF Pro Display&quot;,&quot;SF Pro Text&quot;,Helvetica,sans-serif;text-anchor:middle;" transform="matrix(1 0 0 1 2636.69 322)">Heavy</text>
  <text style="stroke:none;fill:black;font-family:-apple-system,&quot;SF Pro Display&quot;,&quot;SF Pro Text&quot;,Helvetica,sans-serif;text-anchor:middle;" transform="matrix(1 0 0 1 2933.4 322)">Black</text>
  <line id="" style="fill:none;stroke:black;opacity:1;stroke-width:0.5;" x1="263" x2="3036" y1="1903" y2="1903"/>
  <g id="" transform="matrix(1 0 0 1 263 1933)">
   <path d="M9.24805 0.830078C13.5547 0.830078 17.1387-2.74414 17.1387-7.05078C17.1387-11.3574 13.5449-14.9316 9.23828-14.9316C4.94141-14.9316 1.36719-11.3574 1.36719-7.05078C1.36719-2.74414 4.95117 0.830078 9.24805 0.830078ZM9.24805-0.654297C5.70312-0.654297 2.87109-3.49609 2.87109-7.05078C2.87109-10.6055 5.69336-13.4473 9.23828-13.4473C12.793-13.4473 15.6348-10.6055 15.6445-7.05078C15.6543-3.49609 12.8027-0.654297 9.24805-0.654297ZM6.39648-6.31836L8.50586-6.31836L8.50586-4.19922C8.50586-3.75977 8.79883-3.45703 9.22852-3.45703C9.67773-3.45703 9.9707-3.75977 9.9707-4.19922L9.9707-6.31836L12.0996-6.31836C12.5391-6.31836 12.8418-6.61133 12.8418-7.04102C12.8418-7.48047 12.5391-7.7832 12.0996-7.7832L9.9707-7.7832L9.9707-9.89258C9.9707-10.3418 9.67773-10.6445 9.22852-10.6445C8.79883-10.6445 8.50586-10.3418 8.50586-9.89258L8.50586-7.7832L6.39648-7.7832C5.94727-7.7832 5.64453-7.48047 5.64453-7.04102C5.64453-6.61133 5.94727-6.31836 6.39648-6.31836Z"/>
  </g>
  <g id="" transform="matrix(1 0 0 1 281.506 1933)">
   <path d="M11.709 2.91016C17.1582 2.91016 21.6699-1.61133 21.6699-7.05078C21.6699-12.5 17.1484-17.0117 11.6992-17.0117C6.25977-17.0117 1.74805-12.5 1.74805-7.05078C1.74805-1.61133 6.26953 2.91016 11.709 2.91016ZM11.709 1.25C7.09961 1.25 3.41797-2.44141 3.41797-7.05078C3.41797-11.6602 7.08984-15.3516 11.6992-15.3516C16.3086-15.3516 20-11.6602 20.0098-7.05078C20.0195-2.44141 16.3184 1.25 11.709 1.25ZM7.98828-6.23047L10.8789-6.23047L10.8789-3.32031C10.8789-2.83203 11.2109-2.5 11.6895-2.5C12.1777-2.5 12.5195-2.83203 12.5195-3.32031L12.5195-6.23047L15.4297-6.23047C15.918-6.23047 16.25-6.5625 16.25-7.04102C16.25-7.5293 15.918-7.87109 15.4297-7.87109L12.5195-7.87109L12.5195-10.7617C12.5195-11.2695 12.1777-11.6016 11.6895-11.6016C11.2109-11.6016 10.8789-11.2598 10.8789-10.7617L10.8789-7.87109L7.98828-7.87109C7.48047-7.87109 7.14844-7.5293 7.14844-7.04102C7.14844-6.5625 7.49023-6.23047 7.98828-6.23047Z"/>
  </g>
  <g id="" transform="matrix(1 0 0 1 304.924 1933)">
   <path d="M14.9707 5.66406C21.9336 5.66406 27.6953-0.0976562 27.6953-7.05078C27.6953-14.0137 21.9238-19.7754 14.9609-19.7754C8.00781-19.7754 2.25586-14.0137 2.25586-7.05078C2.25586-0.0976562 8.01758 5.66406 14.9707 5.66406ZM14.9707 3.84766C8.93555 3.84766 4.08203-1.01562 4.08203-7.05078C4.08203-13.0957 8.92578-17.9492 14.9609-17.9492C21.0059-17.9492 25.8594-13.0957 25.8691-7.05078C25.8789-1.01562 21.0156 3.84766 14.9707 3.84766ZM10.0586-6.14258L14.0625-6.14258L14.0625-2.12891C14.0625-1.5918 14.4336-1.2207 14.9512-1.2207C15.4883-1.2207 15.8594-1.5918 15.8594-2.12891L15.8594-6.14258L19.8828-6.14258C20.4102-6.14258 20.791-6.51367 20.791-7.03125C20.791-7.56836 20.4199-7.94922 19.8828-7.94922L15.8594-7.94922L15.8594-11.9531C15.8594-12.5098 15.4883-12.8809 14.9512-12.8809C14.4336-12.8809 14.0625-12.5 14.0625-11.9531L14.0625-7.94922L10.0586-7.94922C9.50195-7.94922 9.13086-7.56836 9.13086-7.03125C9.13086-6.51367 9.51172-6.14258 10.0586-6.14258Z"/>
  </g>
  <text style="stroke:none;fill:black;font-family:-apple-system,&quot;SF Pro Display&quot;,&quot;SF Pro Text&quot;,Helvetica,sans-serif;font-weight:bold;" transform="matrix(1 0 0 1 263 1953)">Design Variations</text>
  <text style="stroke:none;fill:black;font-family:-apple-system,&quot;SF Pro Display&quot;,&quot;SF Pro Text&quot;,Helvetica,sans-serif;" transform="matrix(1 0 0 1 263 1971)">Symbols are supported in up to nine weights and three scales.</text>
  <text style="stroke:none;fill:black;font-family:-apple-system,&quot;SF Pro Display&quot;,&quot;SF Pro Text&quot;,Helvetica,sans-serif;" transform="matrix(1 0 0 1 263 1989)">For optimal layout with text and other symbols, vertically align</text>
  <text style="stroke:none;fill:black;font-family:-apple-system,&quot;SF Pro Display&quot;,&quot;SF Pro Text&quot;,Helvetica,sans-serif;" transform="matrix(1 0 0 1 263 2007)">symbols with the adjacent text.</text>
  <line id="" style="fill:none;stroke:#00AEEF;stroke-width:0.5;opacity:1.0;" x1="776" x2="776" y1="1919" y2="1933"/>
  <g id="" transform="matrix(1 0 0 1 776 1933)">
   <path d="M3.31055 0.126953C3.82812 0.126953 4.08203-0.0683594 4.26758-0.605469L5.52734-4.0625L11.2891-4.0625L12.5488-0.605469C12.7344-0.0683594 12.9883 0.126953 13.4961 0.126953C14.0137 0.126953 14.3457-0.185547 14.3457-0.673828C14.3457-0.839844 14.3164-0.986328 14.2383-1.20117L9.6582-13.3887C9.43359-13.9941 9.0332-14.2871 8.4082-14.2871C7.80273-14.2871 7.39258-13.9941 7.17773-13.3984L2.59766-1.19141C2.51953-0.976562 2.49023-0.830078 2.49023-0.664062C2.49023-0.175781 2.80273 0.126953 3.31055 0.126953ZM6.00586-5.53711L8.37891-12.1094L8.42773-12.1094L10.8008-5.53711Z"/>
  </g>
  <line id="" style="fill:none;stroke:#00AEEF;stroke-width:0.5;opacity:1.0;" x1="792.836" x2="792.836" y1="1919" y2="1933"/>
  <text style="stroke:none;fill:black;font-family:-apple-system,&quot;SF Pro Display&quot;,&quot;SF Pro Text&quot;,Helvetica,sans-serif;font-weight:bold;" transform="matrix(1 0 0 1 776 1953)">Margins</text>
  <text style="stroke:none;fill:black;font-family:-apple-system,&quot;SF Pro Display&quot;,&quot;SF Pro Text&quot;,Helvetica,sans-serif;" transform="matrix(1 0 0 1 776 1971)">Leading and trailing margins on the left and right side of each symbol</text>
  <text style="stroke:none;fill:black;font-family:-apple-system,&quot;SF Pro Display&quot;,&quot;SF Pro Text&quot;,Helvetica,sans-serif;" transform="matrix(1 0 0 1 776 1989)">can be adjusted by modifying the x-location of the margin guidelines.</text>
  <text style="stroke:none;fill:black;font-family:-apple-system,&quot;SF Pro Display&quot;,&quot;SF Pro Text&quot;,Helvetica,sans-serif;" transform="matrix(1 0 0 1 776 2007)">Modifications are automatically applied proportionally to all</text>
  <text style="stroke:none;fill:black;font-family:-apple-system,&quot;SF Pro Display&quot;,&quot;SF Pro Text&quot;,Helvetica,sans-serif;" transform="matrix(1 0 0 1 776 2025)">scales and weights.</text>
  <g id="" transform="matrix(1 0 0 1 1289 1933)">
   <path d="M2.8418 1.86523L4.54102 3.57422C5.40039 4.44336 6.38672 4.38477 7.31445 3.35938L17.4902-7.85156C17.7539-7.76367 18.0273-7.7832 18.3398-7.8418L19.4043-8.03711L20.0684-7.36328L20.0293-6.80664C19.9902-6.30859 20.1172-5.92773 20.6055-5.44922L21.3672-4.70703C21.8457-4.22852 22.4609-4.19922 22.9297-4.66797L25.8398-7.58789C26.3086-8.05664 26.2891-8.65234 25.8105-9.13086L25.0391-9.89258C24.5605-10.3711 24.1895-10.5273 23.7109-10.4883L23.1348-10.4395L22.4902-11.0742L22.7344-12.1973C22.8613-12.7637 22.7051-13.2031 22.1191-13.7891L19.9219-15.9766C16.582-19.2969 12.1484-19.2188 9.25781-16.3281C8.83789-15.918 8.80859-15.3418 9.04297-14.9512C9.27734-14.5898 9.73633-14.3555 10.3809-14.5215C11.8457-14.8633 13.3691-14.9219 14.7949-13.9844L14.209-12.5293C14.0137-12.0508 13.9844-11.6504 14.1113-11.2891L3.04688-0.898438C2.06055 0.0195312 1.98242 0.996094 2.8418 1.86523ZM10.752-15.957C13.1836-17.7344 16.4746-17.4316 18.7012-15.2051L21.1328-12.793C21.3672-12.5586 21.4062-12.373 21.3379-12.0312L21.0156-10.5469L22.5195-9.0625L23.5059-9.12109C23.7598-9.13086 23.8379-9.11133 24.0332-8.91602L24.6094-8.33984L22.168-5.89844L21.5918-6.47461C21.3965-6.66992 21.3672-6.74805 21.377-7.01172L21.4453-7.98828L19.9512-9.47266L18.4277-9.21875C18.1055-9.15039 17.959-9.17969 17.7148-9.41406L15.7129-11.416C15.459-11.6504 15.4297-11.8164 15.5859-12.1875L16.4648-14.2773C14.9023-15.7324 12.8711-16.3574 10.8398-15.7617C10.6836-15.7227 10.625-15.8496 10.752-15.957ZM5.27344 2.30469L4.10156 1.14258C3.63281 0.683594 3.74023 0.341797 4.14062-0.0195312L14.9512-10.1953L16.416-8.71094L6.42578 2.27539C6.07422 2.67578 5.74219 2.77344 5.27344 2.30469Z"/>
  </g>
  <text style="stroke:none;fill:black;font-family:-apple-system,&quot;SF Pro Display&quot;,&quot;SF Pro Text&quot;,Helvetica,sans-serif;font-weight:bold;" transform="matrix(1 0 0 1 1289 1953)">Exporting</text>
  <text style="stroke:none;fill:black;font-family:-apple-system,&quot;SF Pro Display&quot;,&quot;SF Pro Text&quot;,Helvetica,sans-serif;" transform="matrix(1 0 0 1 1289 1971)">Symbols should be outlined when exporting to ensure the</text>
  <text style="stroke:none;fill:black;font-family:-apple-system,&quot;SF Pro Display&quot;,&quot;SF Pro Text&quot;,Helvetica,sans-serif;" transform="matrix(1 0 0 1 1289 1989)">design is preserved when submitting to Xcode.</text>
  <text id="template-version" style="stroke:none;fill:black;font-family:-apple-system,&quot;SF Pro Display&quot;,&quot;SF Pro Text&quot;,Helvetica,sans-serif;text-anchor:end;" transform="matrix(1 0 0 1 3036 1933)">Template v.2.0</text>
  <text style="stroke:none;fill:black;font-family:-apple-system,&quot;SF Pro Display&quot;,&quot;SF Pro Text&quot;,Helvetica,sans-serif;text-anchor:end;" transform="matrix(1 0 0 1 3036 1951)">Requires Xcode 12 or greater</text>
  <text style="stroke:none;fill:black;font-family:-apple-system,&quot;SF Pro Display&quot;,&quot;SF Pro Text&quot;,Helvetica,sans-serif;text-anchor:end;" transform="matrix(1 0 0 1 3036 1969)">Generated from ear</text>
  <text style="stroke:none;fill:black;font-family:-apple-system,&quot;SF Pro Display&quot;,&quot;SF Pro Text&quot;,Helvetica,sans-serif;text-anchor:end;" transform="matrix(1 0 0 1 3036 1987)">Typeset at 100 points</text>
  <text style="stroke:none;fill:black;font-family:-apple-system,&quot;SF Pro Display&quot;,&quot;SF Pro Text&quot;,Helvetica,sans-serif;" transform="matrix(1 0 0 1 263 726)">Small</text>
  <text style="stroke:none;fill:black;font-family:-apple-system,&quot;SF Pro Display&quot;,&quot;SF Pro Text&quot;,Helvetica,sans-serif;" transform="matrix(1 0 0 1 263 1156)">Medium</text>
  <text style="stroke:none;fill:black;font-family:-apple-system,&quot;SF Pro Display&quot;,&quot;SF Pro Text&quot;,Helvetica,sans-serif;" transform="matrix(1 0 0 1 263 1586)">Large</text>
 </g>
 <g id="Guides">
  <g id="H-reference" style="fill:#27AAE1;stroke:none;" transform="matrix(1 0 0 1 339 696)">
   <path d="M0.976562 0L3.66211 0L12.9883-24.4629L45.752-24.4629L55.127 0L57.7637 0L30.6152-70.459L28.125-70.459ZM29.3457-67.1387L29.4434-67.1387L44.873-26.709L13.8672-26.709Z"/>
  </g>
  <line id="Baseline-S" style="fill:none;stroke:#27AAE1;opacity:1;stroke-width:0.5;" x1="263" x2="3036" y1="696" y2="696"/>
  <line id="Capline-S" style="fill:none;stroke:#27AAE1;opacity:1;stroke-width:0.5;" x1="263" x2="3036" y1="625.541" y2="625.541"/>
  <g id="H-reference" style="fill:#27AAE1;stroke:none;" transform="matrix(1 0 0 1 339 1126)">
   <path d="M0.976562 0L3.66211 0L12.9883-24.4629L45.752-24.4629L55.127 0L57.7637 0L30.6152-70.459L28.125-70.459ZM29.3457-67.1387L29.4434-67.1387L44.873-26.709L13.8672-26.709Z"/>
  </g>
  <line id="Baseline-M" style="fill:none;stroke:#27AAE1;opacity:1;stroke-width:0.5;" x1="263" x2="3036" y1="1126" y2="1126"/>
  <line id="Capline-M" style="fill:none;stroke:#27AAE1;opacity:1;stroke-width:0.5;" x1="263" x2="3036" y1="1055.54" y2="1055.54"/>
  <g id="H-reference" style="fill:#27AAE1;stroke:none;" transform="matrix(1 0 0 1 339 1556)">
   <path d="M0.976562 0L3.66211 0L12.9883-24.4629L45.752-24.4629L55.127 0L57.7637 0L30.6152-70.459L28.125-70.459ZM29.3457-67.1387L29.4434-67.1387L44.873-26.709L13.8672-26.709Z"/>
  </g>
  <line id="Baseline-L" style="fill:none;stroke:#27AAE1;opacity:1;stroke-width:0.5;" x1="263" x2="3036" y1="1556" y2="1556"/>
  <line id="Capline-L" style="fill:none;stroke:#27AAE1;opacity:1;stroke-width:0.5;" x1="263" x2="3036" y1="1485.54" y2="1485.54"/>
  <line id="left-margin" style="fill:none;stroke:#00AEEF;stroke-width:0.5;opacity:1.0;" x1="1401.75" x2="1401.75" y1="1030.79" y2="1150.12"/>
  <line id="right-margin" style="fill:none;stroke:#00AEEF;stroke-width:0.5;opacity:1.0;" x1="1497.94" x2="1497.94" y1="1030.79" y2="1150.12"/>
 </g>
 <g id="Symbols">
  <g id="Black-L" transform="matrix(1 0 0 1 2867.19 1556)">
   <path d="M16.0645-2.73438C16.0645 18.457 28.4668 30.4199 49.0723 30.4199C64.502 30.4199 75.6348 22.8027 82.7637 9.22852L88.2812-1.12305C97.8027-18.8477 121.143-27.4902 121.143-59.2285C121.143-90.8691 100.146-112.012 68.7012-112.012C37.1582-112.012 16.0645-90.6738 16.0645-58.5938ZM32.7148-2.97852L32.7148-58.5938C32.7148-80.7129 47.1191-95.4102 68.7012-95.4102C90.2344-95.4102 104.492-80.9082 104.492-59.2285C104.492-34.0332 84.375-29.248 72.8516-7.37305L68.3594 1.07422C64.209 9.08203 58.7891 13.7207 49.8047 13.7207C39.0625 13.7207 32.7148 7.51953 32.7148-2.97852ZM46.582-27.2949C50.293-27.2949 52.9297-29.9316 52.9297-33.6426L52.9297-43.3594L61.9141-43.3594C65.2832-43.3594 67.4316-41.3574 67.4316-38.4277C67.4316-36.4746 66.6504-34.7168 65.2832-33.0078L59.4727-25.7324C58.3496-24.3164 57.7637-22.7051 57.7637-21.2891C57.7637-17.9199 60.498-15.2344 64.0625-15.2344C66.0645-15.2344 67.8223-16.2598 69.0918-17.8223L75.5371-25.9766C78.418-29.5898 80.1758-34.7168 80.1758-38.8672C80.1758-48.9746 72.7539-55.7617 61.7676-55.7617L52.9297-55.7617L52.9297-58.6914C52.9297-68.6035 59.1797-75.0977 68.7012-75.0977C78.6133-75.0977 85.1074-68.75 85.1074-59.1797C85.1074-55.6641 87.9395-52.832 91.4551-52.832C94.9219-52.832 97.7051-55.6641 97.7051-59.1797C97.7051-76.2207 86.1328-87.6465 68.7012-87.6465C51.709-87.6465 40.2832-76.0742 40.2832-58.6914L40.2832-33.6426C40.2832-29.9316 42.8711-27.2949 46.582-27.2949Z"/>
  </g>
  <g id="Heavy-L" transform="matrix(1 0 0 1 2571.63 1556)">
   <path d="M16.0645-2.73438C16.0645 17.4805 28.0273 29.1992 47.7051 29.1992C62.4512 29.1992 73.1934 21.9727 80.0293 9.0332L85.4004-1.07422C95.8496-20.6055 118.848-27.6855 118.848-59.2285C118.848-90.2832 98.3887-111.035 67.7246-111.035C36.8164-111.035 16.0645-90.0391 16.0645-58.6426ZM30.7129-3.02734L30.7129-58.6426C30.7129-81.3477 45.5078-96.3867 67.7246-96.3867C89.6484-96.3867 104.248-81.4941 104.248-59.2285C104.248-33.6914 83.9844-29.2969 71.9238-6.68945L67.334 1.80664C63.0371 9.96094 57.373 14.4531 48.3398 14.4531C37.3535 14.4531 30.7129 7.86133 30.7129-3.02734ZM44.5801-27.2949C47.9004-27.2949 50.3906-29.7363 50.3906-33.0566L50.3906-44.043L61.377-44.043C65.0391-44.043 67.4316-41.8457 67.4316-38.623C67.4316-36.6211 66.5527-34.6191 65.1367-32.8613L58.8867-25.0488C57.8613-23.7305 57.3242-22.3145 57.3242-20.9473C57.3242-17.8711 59.8633-15.3809 63.1348-15.3809C64.9414-15.3809 66.5527-16.3086 67.7246-17.8223L74.6094-26.4648C77.4414-30.0293 79.1504-35.0098 79.1504-39.0625C79.1504-48.877 71.9238-55.4688 61.2305-55.4688L50.3906-55.4688L50.3906-58.8867C50.3906-69.4336 57.2266-76.416 67.6758-76.416C78.2715-76.416 85.2051-69.5801 85.2051-59.2285C85.2051-56.0547 87.793-53.4668 91.0156-53.4668C94.1895-53.4668 96.7773-56.0547 96.7773-59.2285C96.7773-76.416 85.1562-87.9395 67.6758-87.9395C50.4395-87.9395 38.8184-76.3184 38.8184-58.8867L38.8184-33.0566C38.8184-29.7363 41.2109-27.2949 44.5801-27.2949Z"/>
  </g>
  <g id="Bold-L" transform="matrix(1 0 0 1 2276.18 1556)">
   <path d="M16.0645-2.68555C16.0645 16.3574 27.5879 27.7832 46.1914 27.7832C60.1562 27.7832 70.459 21.0449 76.9043 8.83789L82.2266-0.976562C93.6523-22.5098 116.309-27.9297 116.309-59.2285C116.309-89.6484 96.4355-109.912 66.6016-109.912C36.377-109.912 16.0645-89.3555 16.0645-58.7402ZM28.4668-3.07617L28.4668-58.7402C28.4668-82.0312 43.75-97.5098 66.6016-97.5098C89.0137-97.5098 103.906-82.1777 103.906-59.2285C103.906-33.3496 83.4961-29.2969 70.8984-5.9082L66.1621 2.68555C61.7676 10.8887 55.7617 15.2344 46.7285 15.2344C35.3516 15.2344 28.4668 8.30078 28.4668-3.07617ZM42.334-27.2461C45.2637-27.2461 47.5098-29.4922 47.5098-32.4707L47.5098-44.8242L60.791-44.8242C64.7949-44.8242 67.3828-42.4316 67.3828-38.8672C67.3828-36.8164 66.4551-34.5215 64.9902-32.7148L58.252-24.3164C57.3242-23.1445 56.8359-21.8262 56.8359-20.6055C56.8359-17.8223 59.1797-15.5762 62.0605-15.5762C63.7207-15.5762 65.1855-16.4062 66.2598-17.7734L73.584-27.0508C76.3184-30.4688 78.0273-35.3027 78.0273-39.3066C78.0273-48.7793 71.0449-55.127 60.6445-55.127L47.5098-55.127L47.5098-59.082C47.5098-70.4102 55.0781-77.8809 66.5039-77.8809C77.8809-77.8809 85.3027-70.5566 85.3027-59.3262C85.3027-56.4453 87.6465-54.1016 90.5273-54.1016C93.3594-54.1016 95.7031-56.4453 95.7031-59.3262C95.7031-76.6602 84.0332-88.2324 66.5039-88.2324C48.9746-88.2324 37.1582-76.5625 37.1582-59.082L37.1582-32.4707C37.1582-29.4922 39.3555-27.2461 42.334-27.2461Z"/>
  </g>
  <g id="Semibold-L" transform="matrix(1 0 0 1 1980.35 1556)">
   <path d="M16.0645-2.68555C16.0645 15.5762 27.2949 26.8066 45.1172 26.8066C58.5449 26.8066 68.5547 20.459 74.8047 8.74023L80.0293-0.927734C92.1387-23.8281 114.551-28.0762 114.551-59.2285C114.551-89.1602 95.0684-109.131 65.8203-109.131C36.084-109.131 16.0645-88.916 16.0645-58.7891ZM26.9531-3.125L26.9531-58.7891C26.9531-82.5195 42.5293-98.291 65.8203-98.291C88.5742-98.291 103.711-82.6172 103.711-59.2285C103.711-33.1543 83.2031-29.3457 70.166-5.41992L65.332 3.27148C60.8887 11.5234 54.6387 15.8203 45.6055 15.8203C34.0332 15.8203 26.9531 8.59375 26.9531-3.125ZM40.7715-27.2461C43.457-27.2461 45.5566-29.3457 45.5566-32.0312L45.5566-45.3613L60.4004-45.3613C64.5996-45.3613 67.3828-42.7734 67.3828-39.0137C67.3828-36.9629 66.3574-34.4727 64.8926-32.6172L57.8125-23.7793C56.9824-22.7051 56.543-21.5332 56.543-20.3613C56.543-17.7734 58.6914-15.6738 61.377-15.6738C62.8418-15.6738 64.209-16.4551 65.2344-17.7734L72.9004-27.4414C75.5371-30.7617 77.1973-35.5469 77.1973-39.4531C77.1973-48.6816 70.4102-54.8828 60.2539-54.8828L45.5566-54.8828L45.5566-59.2285C45.5566-71.0449 53.5645-78.8574 65.7227-78.8574C77.6367-78.8574 85.4004-71.1914 85.4004-59.375C85.4004-56.7383 87.5488-54.5898 90.1855-54.5898C92.7734-54.5898 94.9707-56.7383 94.9707-59.375C94.9707-76.8066 83.252-88.4277 65.7227-88.4277C47.998-88.4277 35.9863-76.709 35.9863-59.2285L35.9863-32.0312C35.9863-29.3457 38.0859-27.2461 40.7715-27.2461Z"/>
  </g>
  <g id="Medium-L" transform="matrix(1 0 0 1 1684.3 1556)">
   <path d="M16.0645-2.68555C16.0645 15.0391 27.0508 26.0742 44.3359 26.0742C57.373 26.0742 67.1387 19.9707 73.1934 8.64258L78.3691-0.878906C91.0156-24.8535 113.232-28.1738 113.232-59.2285C113.232-88.8184 94.043-108.545 65.2344-108.545C35.8887-108.545 16.0645-88.5742 16.0645-58.8379ZM25.7812-3.125L25.7812-58.8379C25.7812-82.8613 41.6016-98.877 65.2344-98.877C88.2324-98.877 103.564-82.959 103.564-59.2285C103.564-32.959 82.959-29.3457 69.6289-5.0293L64.6973 3.71094C60.2051 12.0117 53.7598 16.2109 44.7754 16.2109C33.0078 16.2109 25.7812 8.83789 25.7812-3.125ZM39.5996-27.1973C42.0898-27.1973 44.0918-29.1992 44.0918-31.6895L44.0918-45.8008L60.1074-45.8008C64.502-45.8008 67.3828-43.0664 67.3828-39.1113C67.3828-37.0605 66.3086-34.4238 64.7949-32.5684L57.4707-23.3887C56.6895-22.4121 56.2988-21.2891 56.2988-20.2148C56.2988-17.7246 58.3496-15.7715 60.791-15.7715C62.207-15.7715 63.4766-16.5039 64.4531-17.7734L72.3633-27.7344C74.9512-31.0059 76.6113-35.6934 76.6113-39.5508C76.6113-48.6328 69.9707-54.6875 59.9121-54.6875L44.0918-54.6875L44.0918-59.3262C44.0918-71.582 52.4414-79.6387 65.0879-79.6387C77.4414-79.6387 85.4492-71.6797 85.4492-59.4238C85.4492-56.9824 87.4512-54.9316 89.9414-54.9316C92.3828-54.9316 94.3848-56.9824 94.3848-59.4238C94.3848-76.9043 82.7148-88.5742 65.0879-88.5742C47.2168-88.5742 35.1074-76.8555 35.1074-59.3262L35.1074-31.6895C35.1074-29.1992 37.1094-27.1973 39.5996-27.1973Z"/>
  </g>
  <g id="Regular-L" transform="matrix(1 0 0 1 1388.47 1556)">
   <path d="M16.0645-2.68555C16.0645 14.2578 26.709 25.1465 43.3105 25.1465C55.8105 25.1465 65.2832 19.3359 71.0449 8.49609L76.1719-0.830078C89.5508-26.1719 111.475-28.3203 111.475-59.2285C111.475-88.3789 92.7246-107.764 64.4531-107.764C35.5957-107.764 16.0645-88.0859 16.0645-58.8867ZM24.2188-3.17383L24.2188-58.8867C24.2188-83.3496 40.3809-99.6094 64.4531-99.6094C87.793-99.6094 103.32-83.4473 103.32-59.2285C103.32-32.7148 82.666-29.3457 68.9453-4.49219L63.916 4.29688C59.3262 12.6465 52.6855 16.7969 43.6523 16.7969C31.6895 16.7969 24.2188 9.13086 24.2188-3.17383ZM38.0859-27.1973C40.2832-27.1973 42.1387-29.0527 42.1387-31.25L42.1387-46.2891L59.668-46.2891C64.3066-46.2891 67.334-43.457 67.334-39.3066C67.334-37.1582 66.2109-34.375 64.6484-32.4707L57.0312-22.8516C56.3477-21.9727 55.957-20.9961 55.957-19.9707C55.957-17.7246 57.8613-15.918 60.1074-15.918C61.3281-15.918 62.5488-16.5527 63.4766-17.7246L71.6797-28.125C74.1699-31.2988 75.8301-35.9375 75.8301-39.6973C75.8301-48.5352 69.3359-54.4434 59.5215-54.4434L42.1387-54.4434L42.1387-59.4727C42.1387-72.2168 50.9766-80.6641 64.3066-80.6641C77.1973-80.6641 85.498-72.3145 85.498-59.4727C85.498-57.2754 87.3535-55.4199 89.5996-55.4199C91.7969-55.4199 93.6523-57.2754 93.6523-59.4727C93.6523-77.0996 81.9336-88.8184 64.3066-88.8184C46.2402-88.8184 33.9844-77.002 33.9844-59.4727L33.9844-31.25C33.9844-29.0527 35.8398-27.1973 38.0859-27.1973Z"/>
  </g>
  <g id="Light-L" transform="matrix(1 0 0 1 1092.68 1556)">
   <path d="M16.0645-2.73438C16.0645 13.5254 26.5137 24.1211 42.4805 24.1211C54.834 24.1211 64.3066 18.0176 69.9219 7.03125L74.2188-1.2207C87.6953-27.9785 109.668-28.7109 109.668-59.2285C109.668-87.8906 91.2598-106.885 63.5742-106.885C35.3027-106.885 16.0645-87.4023 16.0645-58.6914ZM22.4121-3.02734L22.4121-58.6914C22.4121-83.7891 38.916-100.537 63.5742-100.537C87.3535-100.537 103.32-83.9355 103.32-59.2285C103.32-32.1777 82.4219-30.4199 68.6523-4.10156L64.2578 3.95508C59.5215 13.0371 52.2949 17.7246 42.7246 17.7246C30.3223 17.7246 22.4121 9.61914 22.4121-3.02734ZM36.8164-27.4902C38.5254-27.4902 39.9414-28.9551 39.9414-30.6641L39.9414-47.2168L59.5215-47.2168C64.5996-47.2168 68.0664-43.9941 68.0664-39.3066C68.0664-36.9629 66.8945-33.9355 65.1855-31.8848L57.5684-22.2656C56.9824-21.5332 56.6895-20.752 56.6895-19.9219C56.6895-18.1641 58.2031-16.8457 59.9121-16.8457C60.8887-16.8457 61.8164-17.334 62.5488-18.3105L70.752-28.6621C73.1445-31.6895 74.707-36.1328 74.707-39.6973C74.707-48.0469 68.6523-53.5645 59.3262-53.5645L39.9414-53.5645L39.9414-59.6191C39.9414-73.1934 49.3164-82.2266 63.2812-82.2266C77.0996-82.2266 85.9375-73.3398 85.9375-59.6191C85.9375-57.9102 87.4023-56.4941 89.1113-56.4941C90.8203-56.4941 92.2363-57.9102 92.2363-59.6191C92.2363-77.002 80.7617-88.5254 63.2812-88.5254C45.6543-88.5254 33.6426-76.8555 33.6426-59.6191L33.6426-30.6641C33.6426-28.9551 35.0586-27.4902 36.8164-27.4902Z"/>
  </g>
  <g id="Thin-L" transform="matrix(1 0 0 1 797.194 1556)">
   <path d="M16.0645-2.7832C16.0645 12.5977 26.2207 22.8027 41.4551 22.8027C53.5645 22.8027 62.9883 16.3086 68.3594 5.07812L71.6309-1.70898C85.2539-30.3711 107.227-29.248 107.227-59.2285C107.227-87.2559 89.3555-105.615 62.3047-105.615C34.9121-105.615 16.0645-86.4258 16.0645-58.3984ZM19.9707-2.83203L19.9707-58.3984C19.9707-84.3262 37.0117-101.758 62.3047-101.758C86.8164-101.758 103.32-84.6191 103.32-59.2285C103.32-31.4453 82.1289-31.7871 68.3105-3.56445L64.7461 3.51562C59.8145 13.5742 51.7578 18.9453 41.5039 18.9453C28.5156 18.9453 19.9707 10.2539 19.9707-2.83203ZM35.1074-27.9297C36.1816-27.9297 37.0605-28.8086 37.0605-29.834L37.0605-48.4375L59.2773-48.4375C65.0391-48.4375 69.043-44.6777 69.043-39.3066C69.043-36.7188 67.7246-33.3496 65.918-31.1035L58.2031-21.4355C57.8125-20.9473 57.666-20.459 57.666-19.9219C57.666-18.7988 58.5938-18.0664 59.668-18.0664C60.3027-18.0664 60.791-18.3594 61.377-19.043L69.5801-29.4434C71.7773-32.2266 73.2422-36.4258 73.2422-39.6973C73.2422-47.3633 67.7246-52.3438 59.082-52.3438L37.0605-52.3438L37.0605-59.8145C37.0605-74.5117 47.0703-84.3262 61.9629-84.3262C77.002-84.3262 86.5234-74.707 86.5234-59.8145C86.5234-58.7891 87.4023-57.9102 88.4766-57.9102C89.5508-57.9102 90.3809-58.7891 90.3809-59.8145C90.3809-76.9531 79.1504-88.1836 61.9629-88.1836C44.9219-88.1836 33.1543-76.6602 33.1543-59.8145L33.1543-29.834C33.1543-28.8086 34.0332-27.9297 35.1074-27.9297Z"/>
  </g>
  <g id="Ultralight-L" transform="matrix(1 0 0 1 501.117 1556)">
   <path d="M16.0645-2.7832C16.0645 12.1094 26.0742 22.168 40.918 22.168C52.9297 22.168 62.3047 15.4785 67.5781 4.05273L70.3125-1.95312C83.9844-31.5918 105.957-29.541 105.957-59.2285C105.957-86.9141 88.3789-105.029 61.7188-105.029C34.7168-105.029 16.0645-85.9375 16.0645-58.3008ZM18.7012-2.73438L18.7012-58.3008C18.7012-84.6191 36.0352-102.393 61.7188-102.393C86.5723-102.393 103.32-84.9609 103.32-59.2285C103.32-31.0547 81.9336-32.4707 68.1152-3.27148L65.0391 3.32031C60.0098 13.8184 51.5137 19.5801 40.8691 19.5801C27.6367 19.5801 18.7012 10.5469 18.7012-2.73438ZM34.2285-28.125C34.9609-28.125 35.5469-28.7109 35.5469-29.4434L35.5469-49.0723L59.1309-49.0723C65.2344-49.0723 69.5801-45.0195 69.5801-39.3066C69.5801-36.5723 68.1641-33.0566 66.2598-30.7617L58.5449-20.9961C58.252-20.6543 58.1543-20.3125 58.1543-19.9219C58.1543-19.0918 58.7891-18.7012 59.5215-18.7012C60.0098-18.7012 60.3027-18.8965 60.7422-19.4336L68.9453-29.834C71.0938-32.5195 72.5098-36.5234 72.5098-39.6973C72.5098-47.0215 67.2363-51.709 58.9844-51.709L35.5469-51.709L35.5469-59.9121C35.5469-75.1465 45.9473-85.4004 61.2793-85.4004C76.9531-85.4004 86.8164-75.4395 86.8164-59.9121C86.8164-59.2285 87.4023-58.6426 88.1348-58.6426C88.8672-58.6426 89.4531-59.2285 89.4531-59.9121C89.4531-76.9043 78.3203-88.0371 61.2793-88.0371C44.5312-88.0371 32.959-76.5625 32.959-59.9121L32.959-29.4434C32.959-28.7109 33.5449-28.125 34.2285-28.125Z"/>
  </g>
  <g id="Black-M" transform="matrix(1 0 0 1 2881.06 1126)">
   <path d="M12.4512-10.1074C12.4512 7.32422 22.4609 16.7969 39.4531 16.7969C52.2461 16.7969 61.377 10.1562 67.2363-1.31836L71.2402-9.13086C77.3926-21.1914 95.9473-29.1992 95.9473-53.8574C95.9473-78.8574 79.1992-95.6055 54.1016-95.6055C29.1504-95.6055 12.4512-78.6133 12.4512-53.125ZM27.0508-10.0586L27.0508-53.125C27.0508-69.873 37.8906-81.0059 54.1016-81.0059C70.459-81.0059 81.3477-70.1172 81.3477-53.8574C81.3477-34.375 65.7715-31.1035 57.5684-14.3066L54.5898-8.30078C51.416-1.80664 47.3145 2.19727 40.0879 2.19727C31.9336 2.19727 27.0508-2.39258 27.0508-10.0586ZM38.1348-29.2969C41.2109-29.2969 43.2617-31.3477 43.2617-34.4238L43.2617-41.0645L48.584-41.0645C51.0742-41.0645 52.6855-39.5996 52.6855-37.4023C52.6855-35.8398 52.1484-34.668 51.0742-33.3984L47.1191-28.4668C46.1914-27.2461 45.7031-25.9277 45.7031-24.8047C45.7031-22.1191 47.9004-20.0195 50.8301-20.0195C52.4414-20.0195 53.8086-20.8496 54.834-22.0703L59.2773-27.6855C61.5723-30.5664 62.9395-34.5703 62.9395-37.793C62.9395-45.7031 57.0801-51.0742 48.4863-51.0742L43.2617-51.0742L43.2617-53.2715C43.2617-60.4492 47.5586-65.2344 54.1016-65.2344C61.2793-65.2344 66.0645-60.6445 66.0645-53.7598C66.0645-50.8789 68.3105-48.6328 71.1914-48.6328C74.0234-48.6328 76.2695-50.8789 76.2695-53.7598C76.2695-66.6992 67.4316-75.3418 54.1016-75.3418C41.5039-75.3418 33.0566-66.5039 33.0566-53.2715L33.0566-34.4238C33.0566-31.3477 35.0586-29.2969 38.1348-29.2969Z"/>
  </g>
  <g id="Heavy-M" transform="matrix(1 0 0 1 2585.35 1126)">
   <path d="M12.4512-10.0586C12.4512 6.44531 22.0703 15.7227 38.1836 15.7227C50.2441 15.7227 58.9355 9.57031 64.5508-1.12305L68.6035-8.93555C75.7812-22.6074 93.9453-29.2969 93.9453-53.8574C93.9453-78.3691 77.6855-94.7266 53.2715-94.7266C28.8086-94.7266 12.4512-78.125 12.4512-53.2715ZM25.3418-10.1562L25.3418-53.2715C25.3418-70.4102 36.5234-81.8359 53.2715-81.8359C69.9707-81.8359 81.0547-70.6543 81.0547-53.8574C81.0547-34.2285 65.4297-30.9082 56.5918-13.6719L53.3691-7.37305C50.0977-0.976562 45.8496 2.7832 38.7207 2.7832C30.3711 2.7832 25.3418-2.09961 25.3418-10.1562ZM36.2793-29.1992C39.0625-29.1992 41.0645-31.1523 41.0645-33.9844L41.0645-41.6016L48.0957-41.6016C50.7324-41.6016 52.4902-39.9902 52.4902-37.6465C52.4902-36.084 51.8555-34.7168 50.7812-33.3984L46.3867-27.8809C45.5078-26.7578 45.0684-25.5859 45.0684-24.5117C45.0684-21.9727 47.1191-19.9707 49.8535-19.9707C51.3672-19.9707 52.6855-20.7031 53.6133-21.9238L58.4961-28.0762C60.7422-30.9082 62.1094-34.8145 62.1094-37.9883C62.1094-45.752 56.3965-50.9766 47.9492-50.9766L41.0645-50.9766L41.0645-53.418C41.0645-61.1328 45.8984-66.2598 53.2227-66.2598C60.9863-66.2598 66.0645-61.2793 66.0645-53.8086C66.0645-51.123 68.1641-49.0234 70.8496-49.0234C73.4863-49.0234 75.5859-51.123 75.5859-53.8086C75.5859-66.9434 66.6504-75.7324 53.2227-75.7324C40.2344-75.7324 31.543-66.7969 31.543-53.418L31.543-33.9844C31.543-31.1523 33.4473-29.1992 36.2793-29.1992Z"/>
  </g>
  <g id="Bold-M" transform="matrix(1 0 0 1 2289.76 1126)">
   <path d="M12.4512-10.0586C12.4512 5.41992 21.6797 14.4531 36.7188 14.4531C47.998 14.4531 56.25 8.98438 61.4746-0.927734L65.6738-8.74023C73.9258-24.1699 91.6992-29.4434 91.6992-53.8574C91.6992-77.7832 75.9277-93.7988 52.2949-93.7988C28.4668-93.7988 12.4512-77.6367 12.4512-53.418ZM23.4375-10.2539L23.4375-53.418C23.4375-71.0938 35.0098-82.8125 52.2949-82.8125C69.3848-82.8125 80.7129-71.1914 80.7129-53.8574C80.7129-33.9844 64.9902-30.6152 55.5664-12.9883L51.9531-6.34766C48.6328-0.0488281 44.1895 3.36914 37.207 3.36914C28.6133 3.36914 23.4375-1.75781 23.4375-10.2539ZM34.1797-29.0527C36.7188-29.0527 38.5742-30.9082 38.5742-33.4473L38.5742-42.1875L47.4609-42.1875C50.3906-42.1875 52.2461-40.4297 52.2461-37.8906C52.2461-36.377 51.5625-34.7656 50.4395-33.3984L45.5566-27.2461C44.7266-26.2207 44.3359-25.1465 44.3359-24.1211C44.3359-21.7773 46.2891-19.873 48.7305-19.873C50.1465-19.873 51.3672-20.5566 52.2461-21.7285L57.666-28.5156C59.8145-31.25 61.1816-35.1074 61.1816-38.2324C61.1816-45.8008 55.6152-50.8789 47.3633-50.8789L38.5742-50.8789L38.5742-53.6133C38.5742-61.9141 43.9941-67.3828 52.2461-67.3828C60.5957-67.3828 66.0645-62.0117 66.0645-53.8574C66.0645-51.416 68.0176-49.4629 70.459-49.4629C72.8516-49.4629 74.8047-51.416 74.8047-53.8574C74.8047-67.1875 65.8203-76.123 52.2461-76.123C38.8184-76.123 29.7852-67.0898 29.7852-53.6133L29.7852-33.4473C29.7852-30.9082 31.6406-29.0527 34.1797-29.0527Z"/>
  </g>
  <g id="Semibold-M" transform="matrix(1 0 0 1 1993.83 1126)">
   <path d="M12.4512-10.0098C12.4512 4.73633 21.3379 13.623 35.7422 13.623C46.4844 13.623 54.3945 8.54492 59.4238-0.78125L63.6719-8.59375C72.6562-25.293 90.1855-29.4922 90.1855-53.8574C90.1855-77.3926 74.7559-93.1152 51.6602-93.1152C28.2227-93.1152 12.4512-77.2461 12.4512-53.5156ZM22.1191-10.3516L22.1191-53.5156C22.1191-71.5332 33.9355-83.4473 51.6602-83.4473C68.9453-83.4473 80.4688-71.582 80.4688-53.8574C80.4688-33.8379 64.6973-30.4199 54.834-12.5L50.9766-5.66406C47.6074 0.585938 43.0176 3.80859 36.1816 3.80859C27.3926 3.80859 22.1191-1.51367 22.1191-10.3516ZM32.7148-28.9551C35.0586-28.9551 36.8652-30.7617 36.8652-33.1055L36.8652-42.5781L47.0703-42.5781C50.0977-42.5781 52.0508-40.7715 52.0508-38.0859C52.0508-36.5234 51.3184-34.7656 50.1953-33.3984L44.9707-26.8066C44.2383-25.8789 43.8477-24.8535 43.8477-23.877C43.8477-21.6309 45.7031-19.8242 47.998-19.8242C49.2676-19.8242 50.4395-20.459 51.3184-21.582L57.0801-28.8574C59.1797-31.4941 60.5469-35.3027 60.5469-38.4277C60.5469-45.8008 55.0781-50.7812 46.9238-50.7812L36.8652-50.7812L36.8652-53.7109C36.8652-62.4023 42.7246-68.1641 51.6113-68.1641C60.3516-68.1641 66.0156-62.5 66.0156-53.9062C66.0156-51.6113 67.9199-49.7559 70.166-49.7559C72.4609-49.7559 74.3164-51.6113 74.3164-53.9062C74.3164-67.3828 65.2344-76.416 51.6113-76.416C37.8418-76.416 28.6133-67.334 28.6133-53.7109L28.6133-33.1055C28.6133-30.7617 30.4199-28.9551 32.7148-28.9551Z"/>
  </g>
  <g id="Medium-M" transform="matrix(1 0 0 1 1697.7 1126)">
   <path d="M12.4512-10.0098C12.4512 4.19922 21.1426 12.9883 35.0098 12.9883C45.3125 12.9883 52.9785 8.20312 57.8125-0.634766L62.1582-8.49609C71.6797-26.0742 89.0137-29.541 89.0137-53.8574C89.0137-77.0996 73.877-92.627 51.123-92.627C28.0273-92.627 12.4512-76.9531 12.4512-53.5645ZM21.1426-10.4004L21.1426-53.5645C21.1426-71.8262 33.1543-83.9844 51.123-83.9844C68.6523-83.9844 80.3223-71.875 80.3223-53.8574C80.3223-33.7402 64.502-30.2734 54.2969-12.1094L50.293-5.12695C46.875 1.02539 42.1875 4.15039 35.4004 4.15039C26.5137 4.15039 21.1426-1.36719 21.1426-10.4004ZM31.6406-28.9062C33.8379-28.9062 35.5957-30.6641 35.5957-32.8613L35.5957-42.8711L46.7773-42.8711C49.9023-42.8711 51.9531-41.0156 51.9531-38.1836C51.9531-36.6699 51.1719-34.7656 50.0488-33.3984L44.5312-26.4648C43.7988-25.5859 43.457-24.6094 43.457-23.6816C43.457-21.5332 45.2637-19.7754 47.4121-19.7754C48.6328-19.7754 49.7559-20.4102 50.6348-21.4844L56.6406-29.1016C58.6914-31.6895 60.0098-35.4492 60.0098-38.5254C60.0098-45.8496 54.6875-50.7324 46.6309-50.7324L35.5957-50.7324L35.5957-53.8086C35.5957-62.8418 41.748-68.75 51.0742-68.75C60.1562-68.75 66.0156-62.8906 66.0156-53.9062C66.0156-51.7578 67.8223-49.9512 69.9707-49.9512C72.1191-49.9512 73.9258-51.7578 73.9258-53.9062C73.9258-67.5293 64.7949-76.6113 51.0742-76.6113C37.1094-76.6113 27.7344-67.4805 27.7344-53.8086L27.7344-32.8613C27.7344-30.6641 29.4434-28.9062 31.6406-28.9062Z"/>
  </g>
  <g id="Regular-M" transform="matrix(1 0 0 1 1401.75 1126)">
   <path d="M12.4512-9.96094C12.4512 3.51562 20.8496 12.1094 33.9844 12.1094C43.7988 12.1094 51.123 7.8125 55.7617-0.488281L60.1562-8.34961C70.459-27.1973 87.4512-29.6387 87.4512-53.8574C87.4512-76.709 72.6562-91.9922 50.4883-91.9922C27.7832-91.9922 12.4512-76.6113 12.4512-53.6621ZM19.8242-10.4492L19.8242-53.6621C19.8242-72.2656 32.0801-84.6191 50.4883-84.6191C68.2617-84.6191 80.0781-72.2656 80.0781-53.8574C80.0781-33.5938 64.209-30.0781 53.5645-11.6699L49.3164-4.39453C45.8496 1.66016 41.0156 4.54102 34.3262 4.54102C25.293 4.54102 19.8242-1.12305 19.8242-10.4492ZM30.2246-28.8086C32.2266-28.8086 33.9355-30.5176 33.9355-32.5195L33.9355-43.3105L46.3379-43.3105C49.6582-43.3105 51.7578-41.3086 51.7578-38.3789C51.7578-36.8652 50.9766-34.8145 49.8047-33.3984L43.9453-26.0254C43.3105-25.1953 42.9688-24.3164 42.9688-23.3887C42.9688-21.3867 44.6777-19.7266 46.6797-19.7266C47.8027-19.7266 48.877-20.3125 49.707-21.3379L56.0547-29.3945C58.0566-31.9336 59.375-35.6445 59.375-38.6719C59.375-45.8496 54.1504-50.6836 46.2402-50.6836L33.9355-50.6836L33.9355-53.9551C33.9355-63.3301 40.4785-69.5312 50.4395-69.5312C59.9121-69.5312 66.0156-63.3789 66.0156-53.9551C66.0156-51.9531 67.6758-50.2441 69.6777-50.2441C71.6797-50.2441 73.3887-51.9531 73.3887-53.9551C73.3887-67.6758 64.209-76.9043 50.4395-76.9043C36.1816-76.9043 26.5625-67.6758 26.5625-53.9551L26.5625-32.5195C26.5625-30.5176 28.2227-28.8086 30.2246-28.8086Z"/>
  </g>
  <g id="Light-M" transform="matrix(1 0 0 1 1105.87 1126)">
   <path d="M12.4512-10.0098C12.4512 2.88086 20.6543 11.2305 33.3008 11.2305C42.9199 11.2305 50.2441 6.64062 54.6875-1.85547L58.3984-8.69141C68.7988-28.8086 85.791-29.9805 85.791-53.8574C85.791-76.2695 71.3867-91.1621 49.6582-91.1621C27.4902-91.1621 12.4512-75.9766 12.4512-53.5156ZM18.1641-10.3516L18.1641-53.5156C18.1641-72.6562 30.8105-85.4492 49.6582-85.4492C67.8711-85.4492 80.0781-72.7539 80.0781-53.8574C80.0781-33.1055 64.0137-31.0059 53.3203-11.2793L49.6582-4.6875C46.0449 2.00195 40.6738 5.37109 33.5449 5.37109C24.1211 5.37109 18.1641-0.683594 18.1641-10.3516ZM29.1016-29.1016C30.6641-29.1016 31.9336-30.4199 31.9336-31.9824L31.9336-44.1406L46.1914-44.1406C49.9512-44.1406 52.4414-41.7969 52.4414-38.3789C52.4414-36.6699 51.5137-34.4238 50.293-32.9102L44.3848-25.4395C43.8477-24.8047 43.6035-24.1211 43.6035-23.3887C43.6035-21.8262 44.9707-20.5566 46.4844-20.5566C47.4121-20.5566 48.2422-20.9961 48.877-21.875L55.2246-29.8828C57.1289-32.3242 58.3984-35.8398 58.3984-38.6719C58.3984-45.4102 53.5156-49.8535 46.0449-49.8535L31.9336-49.8535L31.9336-54.0527C31.9336-64.209 38.9648-70.9473 49.5117-70.9473C59.8145-70.9473 66.4062-64.3066 66.4062-54.0527C66.4062-52.5391 67.7246-51.2207 69.2871-51.2207C70.8496-51.2207 72.1191-52.5391 72.1191-54.0527C72.1191-67.627 63.0859-76.6602 49.5117-76.6602C35.6445-76.6602 26.2207-67.5293 26.2207-54.0527L26.2207-31.9824C26.2207-30.4199 27.5391-29.1016 29.1016-29.1016Z"/>
  </g>
  <g id="Thin-M" transform="matrix(1 0 0 1 810.255 1126)">
   <path d="M12.4512-10.0586C12.4512 2.05078 20.3613 10.0586 32.373 10.0586C41.7969 10.0586 49.1211 5.07812 53.3203-3.56445L56.0547-9.13086C66.6016-30.957 83.5938-30.4688 83.5938-53.8574C83.5938-75.6836 69.6777-90.0391 48.584-90.0391C27.1484-90.0391 12.4512-75.0977 12.4512-53.2715ZM15.9668-10.1562L15.9668-53.2715C15.9668-73.1445 29.1016-86.5234 48.584-86.5234C67.4316-86.5234 80.0781-73.3398 80.0781-53.8574C80.0781-32.4707 63.7207-32.2754 53.0273-10.791L50.0977-5.07812C46.2891 2.49023 40.2344 6.49414 32.4219 6.49414C22.5098 6.49414 15.9668-0.146484 15.9668-10.1562ZM27.5879-29.4922C28.5156-29.4922 29.3457-30.2734 29.3457-31.25L29.3457-45.2148L45.9961-45.2148C50.293-45.2148 53.3203-42.3828 53.3203-38.3789C53.3203-36.4258 52.2949-33.8867 50.9277-32.2266L44.9707-24.707C44.6289-24.2676 44.4824-23.877 44.4824-23.3887C44.4824-22.3633 45.3125-21.6797 46.2891-21.6797C46.875-21.6797 47.3633-21.9238 47.8027-22.5586L54.1504-30.5664C55.9082-32.8125 57.0801-36.084 57.0801-38.6719C57.0801-44.7754 52.6855-48.7305 45.8496-48.7305L29.3457-48.7305L29.3457-54.248C29.3457-65.3809 36.9629-72.8516 48.291-72.8516C59.7168-72.8516 66.9434-65.5273 66.9434-54.248C66.9434-53.2715 67.7246-52.4902 68.7012-52.4902C69.6777-52.4902 70.459-53.2715 70.459-54.248C70.459-67.5781 61.6699-76.3672 48.291-76.3672C34.9609-76.3672 25.8301-67.3828 25.8301-54.248L25.8301-31.25C25.8301-30.2734 26.6113-29.4922 27.5879-29.4922Z"/>
  </g>
  <g id="Ultralight-M" transform="matrix(1 0 0 1 514.106 1126)">
   <path d="M12.4512-10.1074C12.4512 1.61133 20.2637 9.42383 31.8848 9.42383C41.2109 9.42383 48.4863 4.29688 52.5879-4.49219L54.8828-9.375C65.4785-32.0312 82.4707-30.7129 82.4707-53.8574C82.4707-75.3906 68.7988-89.502 47.998-89.502C26.9531-89.502 12.4512-74.6582 12.4512-53.125ZM14.8438-10.0586L14.8438-53.125C14.8438-73.4375 28.2227-87.1094 47.998-87.1094C67.1875-87.1094 80.0781-73.6816 80.0781-53.8574C80.0781-32.1289 63.5742-32.8613 52.832-10.5469L50.293-5.32227C46.4355 2.73438 39.9902 7.03125 31.8848 7.03125C21.6797 7.03125 14.8438 0.146484 14.8438-10.0586ZM26.8066-29.6875C27.4414-29.6875 27.9785-30.2246 27.9785-30.8594L27.9785-45.8008L45.8496-45.8008C50.4883-45.8008 53.7598-42.7246 53.7598-38.3789C53.7598-36.3281 52.6855-33.6426 51.2695-31.8848L45.2637-24.3164C45.0195-24.0234 44.9219-23.7305 44.9219-23.3398C44.9219-22.6074 45.5078-22.2168 46.1914-22.2168C46.582-22.2168 46.875-22.4121 47.2656-22.9004L53.6133-30.9082C55.2734-33.0566 56.3965-36.1816 56.3965-38.6719C56.3965-44.4824 52.2461-48.1934 45.752-48.1934L27.9785-48.1934L27.9785-54.3457C27.9785-65.9668 35.9375-73.7793 47.7051-73.7793C59.6191-73.7793 67.1875-66.1621 67.1875-54.3457C67.1875-53.6621 67.7246-53.125 68.4082-53.125C69.0918-53.125 69.6289-53.6621 69.6289-54.3457C69.6289-67.5293 60.9375-76.1719 47.7051-76.1719C34.6191-76.1719 25.5859-67.2852 25.5859-54.3457L25.5859-30.8594C25.5859-30.2246 26.123-29.6875 26.8066-29.6875Z"/>
  </g>
  <g id="Black-S" transform="matrix(1 0 0 1 2892.46 696)">
   <path d="M9.76562-15.5273C9.76562-1.95312 17.5781 5.46875 30.8105 5.46875C40.7715 5.46875 47.9004 0.292969 52.4902-8.64258L55.6152-14.7461C60.5469-24.3164 75.0488-30.5176 75.0488-49.8047C75.0488-69.3848 61.9629-82.4707 42.334-82.4707C22.8027-82.4707 9.76562-69.1895 9.76562-49.2676ZM21.0938-15.5273L21.0938-49.2676C21.0938-62.4023 29.5898-71.1426 42.334-71.1426C55.1758-71.1426 63.7207-62.5977 63.7207-49.8047C63.7207-34.5703 51.5137-31.9824 45.0195-18.7988L42.6758-14.0625C40.1855-8.98438 36.9629-5.85938 31.2988-5.85938C24.9023-5.85938 21.0938-9.47266 21.0938-15.5273ZM29.7363-30.5664C32.1289-30.5664 33.7402-32.1777 33.7402-34.5703L33.7402-39.8438L38.0371-39.8438C39.9902-39.8438 41.2598-38.6719 41.2598-36.9629C41.2598-35.7422 40.8203-34.8145 39.9902-33.7891L36.8652-29.8828C36.1328-28.9551 35.7422-27.9297 35.7422-27.0508C35.7422-24.9512 37.4512-23.291 39.7461-23.291C41.0156-23.291 42.0898-23.9258 42.8711-24.9023L46.3867-29.3457C48.1934-31.5918 49.2676-34.7168 49.2676-37.2559C49.2676-43.457 44.6777-47.6562 37.9395-47.6562L33.7402-47.6562L33.7402-49.3652C33.7402-55.0293 37.1582-58.7891 42.334-58.7891C47.998-58.7891 51.7578-55.1758 51.7578-49.7559C51.7578-47.5098 53.5156-45.752 55.7617-45.752C57.959-45.752 59.7168-47.5098 59.7168-49.7559C59.7168-59.9121 52.7832-66.6992 42.334-66.6992C32.4219-66.6992 25.7812-59.7656 25.7812-49.3652L25.7812-34.5703C25.7812-32.1777 27.3438-30.5664 29.7363-30.5664Z"/>
  </g>
  <g id="Heavy-S" transform="matrix(1 0 0 1 2596.43 696)">
   <path d="M9.76562-15.5273C9.76562-2.58789 17.2852 4.73633 29.9316 4.73633C39.3555 4.73633 46.1426 0 50.5371-8.34961L53.8086-14.5508C59.4727-25.1953 73.6816-30.5664 73.6816-49.8047C73.6816-69.043 60.9375-81.9336 41.7969-81.9336C22.6074-81.9336 9.76562-68.8965 9.76562-49.3652ZM19.9707-15.625L19.9707-49.3652C19.9707-62.793 28.7109-71.6797 41.7969-71.6797C54.834-71.6797 63.4766-62.9395 63.4766-49.8047C63.4766-34.4727 51.2695-31.6895 44.3359-18.3594L41.6992-13.3301C39.1602-8.39844 35.8887-5.51758 30.3711-5.51758C23.8281-5.51758 19.9707-9.27734 19.9707-15.625ZM28.418-30.4688C30.6641-30.4688 32.2754-32.0312 32.2754-34.2773L32.2754-40.1367L37.6465-40.1367C39.6973-40.1367 41.0156-38.916 41.0156-37.1582C41.0156-35.9375 40.5273-34.8633 39.6973-33.8379L36.2305-29.4922C35.5469-28.6133 35.1562-27.6367 35.1562-26.8066C35.1562-24.7559 36.8164-23.1445 39.0137-23.1445C40.2344-23.1445 41.2598-23.7793 42.041-24.707L45.8984-29.5898C47.6562-31.7871 48.7305-34.9121 48.7305-37.4023C48.7305-43.5547 44.2383-47.6562 37.5488-47.6562L32.2754-47.6562L32.2754-49.4629C32.2754-55.4688 36.0352-59.4238 41.748-59.4238C47.7539-59.4238 51.709-55.5664 51.709-49.7559C51.709-47.6562 53.418-45.9473 55.5176-45.9473C57.6172-45.9473 59.3262-47.6562 59.3262-49.7559C59.3262-60.1074 52.2949-66.9922 41.748-66.9922C31.4941-66.9922 24.6582-60.0098 24.6582-49.4629L24.6582-34.2773C24.6582-32.0312 26.1719-30.4688 28.418-30.4688Z"/>
  </g>
  <g id="Bold-S" transform="matrix(1 0 0 1 2300.48 696)">
   <path d="M9.76562-15.4785C9.76562-3.27148 16.9922 3.90625 28.9062 3.90625C37.7441 3.90625 44.1895-0.341797 48.3398-8.00781L51.8066-14.4043C58.252-26.2207 72.168-30.6152 72.168-49.8047C72.168-68.6523 59.7656-81.2988 41.1621-81.2988C22.3633-81.2988 9.76562-68.5547 9.76562-49.5117ZM18.7012-15.7227L18.7012-49.5117C18.7012-63.2324 27.6855-72.3145 41.1621-72.3145C54.3945-72.3145 63.2324-63.3301 63.2324-49.8047C63.2324-34.375 50.9766-31.3477 43.5547-17.8711L40.5762-12.5C37.9883-7.71484 34.6191-5.17578 29.2969-5.17578C22.6562-5.17578 18.7012-9.08203 18.7012-15.7227ZM27.002-30.3223C29.0527-30.3223 30.6152-31.8848 30.6152-33.9844L30.6152-40.4785L37.207-40.4785C39.3555-40.4785 40.7715-39.209 40.7715-37.3535C40.7715-36.1816 40.2344-34.9609 39.4043-33.9355L35.5469-29.1016C34.8633-28.2715 34.5703-27.3438 34.5703-26.5137C34.5703-24.5605 36.1328-22.998 38.1836-22.998C39.3066-22.998 40.332-23.584 41.1133-24.5117L45.3613-29.8828C47.0703-32.0312 48.1445-35.1074 48.1445-37.5977C48.1445-43.6035 43.7012-47.7051 37.1094-47.7051L30.6152-47.7051L30.6152-49.6094C30.6152-55.9082 34.8145-60.1074 41.1621-60.1074C47.4609-60.1074 51.6602-56.0059 51.6602-49.8047C51.6602-47.7539 53.2715-46.1426 55.2734-46.1426C57.2754-46.1426 58.9355-47.7539 58.9355-49.8047C58.9355-60.3027 51.8066-67.334 41.1621-67.334C30.5176-67.334 23.3887-60.2539 23.3887-49.6094L23.3887-33.9844C23.3887-31.8848 24.9023-30.3223 27.002-30.3223Z"/>
  </g>
  <g id="Semibold-S" transform="matrix(1 0 0 1 2004.28 696)">
   <path d="M9.76562-15.4785C9.76562-3.71094 16.7969 3.32031 28.2227 3.32031C36.6699 3.32031 42.8223-0.585938 46.8262-7.76367L50.3906-14.2578C57.4219-26.9043 71.1426-30.6152 71.1426-49.8047C71.1426-68.4082 58.9844-80.8594 40.7227-80.8594C22.168-80.8594 9.76562-68.3594 9.76562-49.6094ZM17.8711-15.7715L17.8711-49.6094C17.8711-63.5254 27.002-72.7539 40.7227-72.7539C54.1504-72.7539 63.0371-63.5742 63.0371-49.8047C63.0371-34.3262 50.7812-31.1523 43.0176-17.5293L39.7949-11.9141C37.207-7.27539 33.7891-4.88281 28.5645-4.88281C21.8262-4.88281 17.8711-8.98438 17.8711-15.7715ZM25.9766-30.2246C27.9785-30.2246 29.4922-31.7871 29.4922-33.7402L29.4922-40.7227L36.9141-40.7227C39.1602-40.7227 40.5762-39.4043 40.5762-37.4512C40.5762-36.3281 40.0391-35.0098 39.1602-33.9844L35.0586-28.8086C34.4238-28.0273 34.1309-27.1484 34.1309-26.3184C34.1309-24.4141 35.6934-22.9004 37.6465-22.9004C38.7207-22.9004 39.7461-23.4375 40.4785-24.3652L44.9707-30.0781C46.6797-32.1777 47.7539-35.2539 47.7539-37.7441C47.7539-43.6523 43.3594-47.7051 36.8164-47.7051L29.4922-47.7051L29.4922-49.6582C29.4922-56.25 33.9355-60.5957 40.7227-60.5957C47.2656-60.5957 51.6113-56.2988 51.6113-49.8047C51.6113-47.8516 53.1738-46.2891 55.127-46.2891C57.0312-46.2891 58.5938-47.8516 58.5938-49.8047C58.5938-60.4492 51.416-67.5781 40.7227-67.5781C29.7852-67.5781 22.4609-60.4004 22.4609-49.6582L22.4609-33.7402C22.4609-31.7871 24.0234-30.2246 25.9766-30.2246Z"/>
  </g>
  <g id="Medium-S" transform="matrix(1 0 0 1 1707.96 696)">
   <path d="M9.76562-15.4297C9.76562-4.10156 16.6504 2.88086 27.6855 2.88086C35.8398 2.88086 41.8457-0.732422 45.6543-7.61719L49.3652-14.1602C56.8359-27.4414 70.3613-30.6641 70.3613-49.8047C70.3613-68.2129 58.3496-80.5176 40.3809-80.5176C22.0703-80.5176 9.76562-68.1641 9.76562-49.707ZM17.1875-15.8203L17.1875-49.707C17.1875-63.7695 26.4648-73.0957 40.3809-73.0957C53.9062-73.0957 62.9395-63.7695 62.9395-49.8047C62.9395-34.2773 50.5859-30.957 42.627-17.2852L39.2578-11.4746C36.6211-6.93359 33.1543-4.73633 28.0273-4.73633C21.2402-4.73633 17.1875-8.83789 17.1875-15.8203ZM25.2441-30.1758C27.0996-30.1758 28.6621-31.6895 28.6621-33.5938L28.6621-40.918L36.7188-40.918C38.9648-40.918 40.4297-39.5508 40.4297-37.5488C40.4297-36.4258 39.8438-35.0586 39.0137-33.9844L34.668-28.5645C34.082-27.832 33.7891-27.002 33.7891-26.1719C33.7891-24.3164 35.3027-22.8027 37.207-22.8027C38.2324-22.8027 39.2578-23.3398 39.9414-24.2676L44.6777-30.2246C46.3379-32.3242 47.4121-35.3516 47.4121-37.793C47.4121-43.7012 43.0664-47.7051 36.6211-47.7051L28.6621-47.7051L28.6621-49.7559C28.6621-56.4941 33.3008-60.9375 40.3809-60.9375C47.168-60.9375 51.5625-56.543 51.5625-49.8047C51.5625-47.9492 53.125-46.3867 54.9805-46.3867C56.8359-46.3867 58.3984-47.9492 58.3984-49.8047C58.3984-60.5469 51.1719-67.7734 40.3809-67.7734C29.2969-67.7734 21.8262-60.5469 21.8262-49.7559L21.8262-33.5938C21.8262-31.6895 23.3398-30.1758 25.2441-30.1758Z"/>
  </g>
  <g id="Regular-S" transform="matrix(1 0 0 1 1411.76 696)">
   <path d="M9.76562-15.4297C9.76562-4.54102 16.4062 2.29492 27.002 2.29492C34.7168 2.29492 40.4785-0.976562 44.1895-7.37305L47.9492-14.0137C56.0059-28.125 69.3359-30.6641 69.3359-49.8047C69.3359-67.9688 57.5684-80.0781 39.9414-80.0781C21.875-80.0781 9.76562-67.9688 9.76562-49.7559ZM16.3574-15.918L16.3574-49.7559C16.3574-64.0625 25.7812-73.5352 39.9414-73.5352C53.6621-73.5352 62.7441-64.0137 62.7441-49.8047C62.7441-34.1797 50.3906-30.7617 42.0898-16.9434L38.4766-10.9375C35.8398-6.49414 32.3242-4.44336 27.2949-4.44336C20.4102-4.44336 16.3574-8.74023 16.3574-15.918ZM24.2188-30.0781C26.0254-30.0781 27.5391-31.5918 27.5391-33.3496L27.5391-41.1621L36.377-41.1621C38.7695-41.1621 40.2344-39.7461 40.2344-37.6953C40.2344-36.5723 39.6484-35.1074 38.8184-34.0332L34.1797-28.2715C33.6426-27.5879 33.3496-26.7578 33.3496-25.9766C33.3496-24.1699 34.8633-22.7051 36.6211-22.7051C37.6465-22.7051 38.623-23.1934 39.3066-24.1211L44.2871-30.4199C45.9473-32.4707 47.0215-35.498 47.0215-37.9395C47.0215-43.7988 42.7246-47.7051 36.2793-47.7051L27.5391-47.7051L27.5391-49.8047C27.5391-56.8359 32.4219-61.4258 39.9414-61.4258C46.9727-61.4258 51.5137-56.8359 51.5137-49.8047C51.5137-48.0469 53.0273-46.5332 54.834-46.5332C56.5918-46.5332 58.1055-48.0469 58.1055-49.8047C58.1055-60.6934 50.8301-67.9688 39.9414-67.9688C28.5645-67.9688 20.9473-60.7422 20.9473-49.8047L20.9473-33.3496C20.9473-31.5918 22.4609-30.0781 24.2188-30.0781Z"/>
  </g>
  <g id="Light-S" transform="matrix(1 0 0 1 1115.78 696)">
   <path d="M9.76562-15.4785C9.76562-5.12695 16.2598 1.51367 26.3672 1.51367C33.9844 1.51367 39.6973-2.00195 43.2617-8.54492L46.4355-14.3066C54.541-29.5898 67.8711-31.0059 67.8711-49.8047C67.8711-67.5293 56.3965-79.3457 39.209-79.3457C21.6309-79.3457 9.76562-67.3828 9.76562-49.6094ZM14.8926-15.7715L14.8926-49.6094C14.8926-64.4043 24.6094-74.2676 39.209-74.2676C53.3203-74.2676 62.7441-64.4531 62.7441-49.8047C62.7441-33.7402 50.1953-31.5918 41.8945-16.6016L38.7695-11.1816C35.9863-6.20117 32.0312-3.71094 26.5625-3.71094C19.3359-3.71094 14.8926-8.34961 14.8926-15.7715ZM23.2422-30.3223C24.6094-30.3223 25.7812-31.4941 25.7812-32.8613L25.7812-41.8945L36.2305-41.8945C39.0137-41.8945 40.8203-40.1855 40.8203-37.6953C40.8203-36.4258 40.1367-34.7656 39.209-33.5938L34.6191-27.7832C34.1309-27.2461 33.9355-26.6113 33.9355-25.9766C33.9355-24.5605 35.1074-23.4375 36.4746-23.4375C37.3047-23.4375 38.0371-23.8281 38.623-24.5605L43.6035-30.8594C45.1172-32.8125 46.1426-35.6445 46.1426-37.9395C46.1426-43.3594 42.1875-46.9727 36.1328-46.9727L25.7812-46.9727L25.7812-49.9512C25.7812-57.6172 31.1035-62.6465 39.1602-62.6465C46.875-62.6465 51.8555-57.666 51.8555-49.9512C51.8555-48.5352 53.0273-47.3633 54.4434-47.3633C55.8105-47.3633 56.9824-48.5352 56.9824-49.9512C56.9824-60.6445 49.8535-67.7734 39.1602-67.7734C28.125-67.7734 20.6543-60.5957 20.6543-49.9512L20.6543-32.8613C20.6543-31.4941 21.8262-30.3223 23.2422-30.3223Z"/>
  </g>
  <g id="Thin-S" transform="matrix(1 0 0 1 820.045 696)">
   <path d="M9.76562-15.4785C9.76562-5.85938 16.0156 0.488281 25.5371 0.488281C32.959 0.488281 38.6719-3.32031 42.041-10.1074L44.3848-14.6973C52.5879-31.4453 65.918-31.3965 65.918-49.8047C65.918-67.041 54.9316-78.418 38.2812-78.418C21.3379-78.418 9.76562-66.6504 9.76562-49.4141ZM12.9395-15.625L12.9395-49.4141C12.9395-64.8438 23.1445-75.1953 38.2812-75.1953C52.9297-75.1953 62.7441-64.9902 62.7441-49.8047C62.7441-33.2031 49.9512-32.666 41.6016-16.2109L39.1602-11.5234C36.2305-5.76172 31.5918-2.7832 25.6348-2.7832C17.9199-2.7832 12.9395-7.86133 12.9395-15.625ZM21.875-30.6641C22.7539-30.6641 23.4863-31.3965 23.4863-32.2266L23.4863-42.8223L36.084-42.8223C39.3555-42.8223 41.6016-40.7227 41.6016-37.6953C41.6016-36.2305 40.8203-34.2773 39.7949-33.0078L35.1074-27.1484C34.8145-26.7578 34.668-26.3672 34.668-25.9277C34.668-25.0488 35.4492-24.3652 36.3281-24.3652C36.8164-24.3652 37.2559-24.6094 37.6465-25.1465L42.627-31.4453C44.043-33.2031 44.9707-35.8398 44.9707-37.9395C44.9707-42.8223 41.4551-46.0449 35.9863-46.0449L23.4863-46.0449L23.4863-50.0977C23.4863-58.6426 29.3457-64.3066 38.0859-64.3066C46.7773-64.3066 52.3438-58.7402 52.3438-50.0977C52.3438-49.2188 53.0762-48.4863 53.9551-48.4863C54.7852-48.4863 55.5176-49.2188 55.5176-50.0977C55.5176-60.5957 48.584-67.5293 38.0859-67.5293C27.5391-67.5293 20.3125-60.4492 20.3125-50.0977L20.3125-32.2266C20.3125-31.3965 21.0449-30.6641 21.875-30.6641Z"/>
  </g>
  <g id="Ultralight-S" transform="matrix(1 0 0 1 523.822 696)">
   <path d="M9.76562-15.5273C9.76562-6.25 15.918-0.0488281 25.0977-0.0488281C32.4219-0.0488281 38.1348-4.05273 41.4062-10.8887L43.3105-14.8926C51.6113-32.4219 64.9414-31.6406 64.9414-49.8047C64.9414-66.748 54.1504-77.8809 37.7441-77.8809C21.1914-77.8809 9.76562-66.2598 9.76562-49.3164ZM11.9629-15.5273L11.9629-49.3164C11.9629-65.0879 22.3633-75.7324 37.7441-75.7324C52.6855-75.7324 62.7441-65.2832 62.7441-49.8047C62.7441-32.8613 49.8535-33.2031 41.4551-15.9668L39.3555-11.7188C36.3281-5.56641 31.3965-2.24609 25.0977-2.24609C17.1875-2.24609 11.9629-7.56836 11.9629-15.5273ZM21.1914-30.8105C21.7773-30.8105 22.3145-31.2988 22.3145-31.9336L22.3145-43.3594L35.9375-43.3594C39.502-43.3594 41.9922-41.0156 41.9922-37.6953C41.9922-36.1328 41.1621-34.0332 40.0879-32.666L35.4004-26.8066C35.1562-26.5137 35.0586-26.2695 35.0586-25.9277C35.0586-25.293 35.5957-24.9023 36.1816-24.9023C36.5723-24.9023 36.8652-25.0488 37.1582-25.4883L42.1387-31.7871C43.5059-33.4473 44.3848-35.9375 44.3848-37.9395C44.3848-42.5293 41.0645-45.5078 35.8398-45.5078L22.3145-45.5078L22.3145-50.1953C22.3145-59.1797 28.418-65.1855 37.5488-65.1855C46.7285-65.1855 52.5879-59.2773 52.5879-50.1953C52.5879-49.5605 53.0762-49.0723 53.6621-49.0723C54.248-49.0723 54.7852-49.5605 54.7852-50.1953C54.7852-60.5469 47.9492-67.3828 37.5488-67.3828C27.1973-67.3828 20.1172-60.3516 20.1172-50.1953L20.1172-31.9336C20.1172-31.2988 20.6055-30.8105 21.1914-30.8105Z"/>
  </g>
 </g>
</svg>
