<?xml version="1.0" encoding="UTF-8"?>
<!--Generator: Apple Native CoreSVG 149-->
<!DOCTYPE svg
PUBLIC "-//W3C//DTD SVG 1.1//EN"
       "http://www.w3.org/Graphics/SVG/1.1/DTD/svg11.dtd">
<svg version="1.1" xmlns="http://www.w3.org/2000/svg" xmlns:xlink="http://www.w3.org/1999/xlink" width="3300" height="2200">
 <!--glyph: "uni10040B.medium", point size: 100.000000, font version: "Version 16.0d18e1", template writer version: "8"-->
 <g id="Notes">
  <rect height="2200" id="artboard" style="fill:white;opacity:1" width="3300" x="0" y="0"/>
  <line id="" style="fill:none;stroke:black;opacity:1;stroke-width:0.5;" x1="263" x2="3036" y1="292" y2="292"/>
  <text style="stroke:none;fill:black;font-family:-apple-system,&quot;SF Pro Display&quot;,&quot;SF Pro Text&quot;,Helvetica,sans-serif;font-weight:bold;" transform="matrix(1 0 0 1 263 322)">Weight/Scale Variations</text>
  <text style="stroke:none;fill:black;font-family:-apple-system,&quot;SF Pro Display&quot;,&quot;SF Pro Text&quot;,Helvetica,sans-serif;text-anchor:middle;" transform="matrix(1 0 0 1 559.711 322)">Ultralight</text>
  <text style="stroke:none;fill:black;font-family:-apple-system,&quot;SF Pro Display&quot;,&quot;SF Pro Text&quot;,Helvetica,sans-serif;text-anchor:middle;" transform="matrix(1 0 0 1 856.422 322)">Thin</text>
  <text style="stroke:none;fill:black;font-family:-apple-system,&quot;SF Pro Display&quot;,&quot;SF Pro Text&quot;,Helvetica,sans-serif;text-anchor:middle;" transform="matrix(1 0 0 1 1153.13 322)">Light</text>
  <text style="stroke:none;fill:black;font-family:-apple-system,&quot;SF Pro Display&quot;,&quot;SF Pro Text&quot;,Helvetica,sans-serif;text-anchor:middle;" transform="matrix(1 0 0 1 1449.84 322)">Regular</text>
  <text style="stroke:none;fill:black;font-family:-apple-system,&quot;SF Pro Display&quot;,&quot;SF Pro Text&quot;,Helvetica,sans-serif;text-anchor:middle;" transform="matrix(1 0 0 1 1746.56 322)">Medium</text>
  <text style="stroke:none;fill:black;font-family:-apple-system,&quot;SF Pro Display&quot;,&quot;SF Pro Text&quot;,Helvetica,sans-serif;text-anchor:middle;" transform="matrix(1 0 0 1 2043.27 322)">Semibold</text>
  <text style="stroke:none;fill:black;font-family:-apple-system,&quot;SF Pro Display&quot;,&quot;SF Pro Text&quot;,Helvetica,sans-serif;text-anchor:middle;" transform="matrix(1 0 0 1 2339.98 322)">Bold</text>
  <text style="stroke:none;fill:black;font-family:-apple-system,&quot;SF Pro Display&quot;,&quot;SF Pro Text&quot;,Helvetica,sans-serif;text-anchor:middle;" transform="matrix(1 0 0 1 2636.69 322)">Heavy</text>
  <text style="stroke:none;fill:black;font-family:-apple-system,&quot;SF Pro Display&quot;,&quot;SF Pro Text&quot;,Helvetica,sans-serif;text-anchor:middle;" transform="matrix(1 0 0 1 2933.4 322)">Black</text>
  <line id="" style="fill:none;stroke:black;opacity:1;stroke-width:0.5;" x1="263" x2="3036" y1="1903" y2="1903"/>
  <g id="" transform="matrix(1 0 0 1 263 1933)">
   <path d="M9.24805 0.830078C13.5547 0.830078 17.1387-2.74414 17.1387-7.05078C17.1387-11.3574 13.5449-14.9316 9.23828-14.9316C4.94141-14.9316 1.36719-11.3574 1.36719-7.05078C1.36719-2.74414 4.95117 0.830078 9.24805 0.830078ZM9.24805-0.654297C5.70312-0.654297 2.87109-3.49609 2.87109-7.05078C2.87109-10.6055 5.69336-13.4473 9.23828-13.4473C12.793-13.4473 15.6348-10.6055 15.6445-7.05078C15.6543-3.49609 12.8027-0.654297 9.24805-0.654297ZM6.39648-6.31836L8.50586-6.31836L8.50586-4.19922C8.50586-3.75977 8.79883-3.45703 9.22852-3.45703C9.67773-3.45703 9.9707-3.75977 9.9707-4.19922L9.9707-6.31836L12.0996-6.31836C12.5391-6.31836 12.8418-6.61133 12.8418-7.04102C12.8418-7.48047 12.5391-7.7832 12.0996-7.7832L9.9707-7.7832L9.9707-9.89258C9.9707-10.3418 9.67773-10.6445 9.22852-10.6445C8.79883-10.6445 8.50586-10.3418 8.50586-9.89258L8.50586-7.7832L6.39648-7.7832C5.94727-7.7832 5.64453-7.48047 5.64453-7.04102C5.64453-6.61133 5.94727-6.31836 6.39648-6.31836Z"/>
  </g>
  <g id="" transform="matrix(1 0 0 1 281.506 1933)">
   <path d="M11.709 2.91016C17.1582 2.91016 21.6699-1.61133 21.6699-7.05078C21.6699-12.5 17.1484-17.0117 11.6992-17.0117C6.25977-17.0117 1.74805-12.5 1.74805-7.05078C1.74805-1.61133 6.26953 2.91016 11.709 2.91016ZM11.709 1.25C7.09961 1.25 3.41797-2.44141 3.41797-7.05078C3.41797-11.6602 7.08984-15.3516 11.6992-15.3516C16.3086-15.3516 20-11.6602 20.0098-7.05078C20.0195-2.44141 16.3184 1.25 11.709 1.25ZM7.98828-6.23047L10.8789-6.23047L10.8789-3.32031C10.8789-2.83203 11.2109-2.5 11.6895-2.5C12.1777-2.5 12.5195-2.83203 12.5195-3.32031L12.5195-6.23047L15.4297-6.23047C15.918-6.23047 16.25-6.5625 16.25-7.04102C16.25-7.5293 15.918-7.87109 15.4297-7.87109L12.5195-7.87109L12.5195-10.7617C12.5195-11.2695 12.1777-11.6016 11.6895-11.6016C11.2109-11.6016 10.8789-11.2598 10.8789-10.7617L10.8789-7.87109L7.98828-7.87109C7.48047-7.87109 7.14844-7.5293 7.14844-7.04102C7.14844-6.5625 7.49023-6.23047 7.98828-6.23047Z"/>
  </g>
  <g id="" transform="matrix(1 0 0 1 304.924 1933)">
   <path d="M14.9707 5.66406C21.9336 5.66406 27.6953-0.0976562 27.6953-7.05078C27.6953-14.0137 21.9238-19.7754 14.9609-19.7754C8.00781-19.7754 2.25586-14.0137 2.25586-7.05078C2.25586-0.0976562 8.01758 5.66406 14.9707 5.66406ZM14.9707 3.84766C8.93555 3.84766 4.08203-1.01562 4.08203-7.05078C4.08203-13.0957 8.92578-17.9492 14.9609-17.9492C21.0059-17.9492 25.8594-13.0957 25.8691-7.05078C25.8789-1.01562 21.0156 3.84766 14.9707 3.84766ZM10.0586-6.14258L14.0625-6.14258L14.0625-2.12891C14.0625-1.5918 14.4336-1.2207 14.9512-1.2207C15.4883-1.2207 15.8594-1.5918 15.8594-2.12891L15.8594-6.14258L19.8828-6.14258C20.4102-6.14258 20.791-6.51367 20.791-7.03125C20.791-7.56836 20.4199-7.94922 19.8828-7.94922L15.8594-7.94922L15.8594-11.9531C15.8594-12.5098 15.4883-12.8809 14.9512-12.8809C14.4336-12.8809 14.0625-12.5 14.0625-11.9531L14.0625-7.94922L10.0586-7.94922C9.50195-7.94922 9.13086-7.56836 9.13086-7.03125C9.13086-6.51367 9.51172-6.14258 10.0586-6.14258Z"/>
  </g>
  <text style="stroke:none;fill:black;font-family:-apple-system,&quot;SF Pro Display&quot;,&quot;SF Pro Text&quot;,Helvetica,sans-serif;font-weight:bold;" transform="matrix(1 0 0 1 263 1953)">Design Variations</text>
  <text style="stroke:none;fill:black;font-family:-apple-system,&quot;SF Pro Display&quot;,&quot;SF Pro Text&quot;,Helvetica,sans-serif;" transform="matrix(1 0 0 1 263 1971)">Symbols are supported in up to nine weights and three scales.</text>
  <text style="stroke:none;fill:black;font-family:-apple-system,&quot;SF Pro Display&quot;,&quot;SF Pro Text&quot;,Helvetica,sans-serif;" transform="matrix(1 0 0 1 263 1989)">For optimal layout with text and other symbols, vertically align</text>
  <text style="stroke:none;fill:black;font-family:-apple-system,&quot;SF Pro Display&quot;,&quot;SF Pro Text&quot;,Helvetica,sans-serif;" transform="matrix(1 0 0 1 263 2007)">symbols with the adjacent text.</text>
  <line id="" style="fill:none;stroke:#00AEEF;stroke-width:0.5;opacity:1.0;" x1="776" x2="776" y1="1919" y2="1933"/>
  <g id="" transform="matrix(1 0 0 1 776 1933)">
   <path d="M3.31055 0.126953C3.82812 0.126953 4.08203-0.0683594 4.26758-0.605469L5.52734-4.0625L11.2891-4.0625L12.5488-0.605469C12.7344-0.0683594 12.9883 0.126953 13.4961 0.126953C14.0137 0.126953 14.3457-0.185547 14.3457-0.673828C14.3457-0.839844 14.3164-0.986328 14.2383-1.20117L9.6582-13.3887C9.43359-13.9941 9.0332-14.2871 8.4082-14.2871C7.80273-14.2871 7.39258-13.9941 7.17773-13.3984L2.59766-1.19141C2.51953-0.976562 2.49023-0.830078 2.49023-0.664062C2.49023-0.175781 2.80273 0.126953 3.31055 0.126953ZM6.00586-5.53711L8.37891-12.1094L8.42773-12.1094L10.8008-5.53711Z"/>
  </g>
  <line id="" style="fill:none;stroke:#00AEEF;stroke-width:0.5;opacity:1.0;" x1="792.836" x2="792.836" y1="1919" y2="1933"/>
  <text style="stroke:none;fill:black;font-family:-apple-system,&quot;SF Pro Display&quot;,&quot;SF Pro Text&quot;,Helvetica,sans-serif;font-weight:bold;" transform="matrix(1 0 0 1 776 1953)">Margins</text>
  <text style="stroke:none;fill:black;font-family:-apple-system,&quot;SF Pro Display&quot;,&quot;SF Pro Text&quot;,Helvetica,sans-serif;" transform="matrix(1 0 0 1 776 1971)">Leading and trailing margins on the left and right side of each symbol</text>
  <text style="stroke:none;fill:black;font-family:-apple-system,&quot;SF Pro Display&quot;,&quot;SF Pro Text&quot;,Helvetica,sans-serif;" transform="matrix(1 0 0 1 776 1989)">can be adjusted by modifying the x-location of the margin guidelines.</text>
  <text style="stroke:none;fill:black;font-family:-apple-system,&quot;SF Pro Display&quot;,&quot;SF Pro Text&quot;,Helvetica,sans-serif;" transform="matrix(1 0 0 1 776 2007)">Modifications are automatically applied proportionally to all</text>
  <text style="stroke:none;fill:black;font-family:-apple-system,&quot;SF Pro Display&quot;,&quot;SF Pro Text&quot;,Helvetica,sans-serif;" transform="matrix(1 0 0 1 776 2025)">scales and weights.</text>
  <g id="" transform="matrix(1 0 0 1 1289 1933)">
   <path d="M2.8418 1.86523L4.54102 3.57422C5.40039 4.44336 6.38672 4.38477 7.31445 3.35938L17.4902-7.85156C17.7539-7.76367 18.0273-7.7832 18.3398-7.8418L19.4043-8.03711L20.0684-7.36328L20.0293-6.80664C19.9902-6.30859 20.1172-5.92773 20.6055-5.44922L21.3672-4.70703C21.8457-4.22852 22.4609-4.19922 22.9297-4.66797L25.8398-7.58789C26.3086-8.05664 26.2891-8.65234 25.8105-9.13086L25.0391-9.89258C24.5605-10.3711 24.1895-10.5273 23.7109-10.4883L23.1348-10.4395L22.4902-11.0742L22.7344-12.1973C22.8613-12.7637 22.7051-13.2031 22.1191-13.7891L19.9219-15.9766C16.582-19.2969 12.1484-19.2188 9.25781-16.3281C8.83789-15.918 8.80859-15.3418 9.04297-14.9512C9.27734-14.5898 9.73633-14.3555 10.3809-14.5215C11.8457-14.8633 13.3691-14.9219 14.7949-13.9844L14.209-12.5293C14.0137-12.0508 13.9844-11.6504 14.1113-11.2891L3.04688-0.898438C2.06055 0.0195312 1.98242 0.996094 2.8418 1.86523ZM10.752-15.957C13.1836-17.7344 16.4746-17.4316 18.7012-15.2051L21.1328-12.793C21.3672-12.5586 21.4062-12.373 21.3379-12.0312L21.0156-10.5469L22.5195-9.0625L23.5059-9.12109C23.7598-9.13086 23.8379-9.11133 24.0332-8.91602L24.6094-8.33984L22.168-5.89844L21.5918-6.47461C21.3965-6.66992 21.3672-6.74805 21.377-7.01172L21.4453-7.98828L19.9512-9.47266L18.4277-9.21875C18.1055-9.15039 17.959-9.17969 17.7148-9.41406L15.7129-11.416C15.459-11.6504 15.4297-11.8164 15.5859-12.1875L16.4648-14.2773C14.9023-15.7324 12.8711-16.3574 10.8398-15.7617C10.6836-15.7227 10.625-15.8496 10.752-15.957ZM5.27344 2.30469L4.10156 1.14258C3.63281 0.683594 3.74023 0.341797 4.14062-0.0195312L14.9512-10.1953L16.416-8.71094L6.42578 2.27539C6.07422 2.67578 5.74219 2.77344 5.27344 2.30469Z"/>
  </g>
  <text style="stroke:none;fill:black;font-family:-apple-system,&quot;SF Pro Display&quot;,&quot;SF Pro Text&quot;,Helvetica,sans-serif;font-weight:bold;" transform="matrix(1 0 0 1 1289 1953)">Exporting</text>
  <text style="stroke:none;fill:black;font-family:-apple-system,&quot;SF Pro Display&quot;,&quot;SF Pro Text&quot;,Helvetica,sans-serif;" transform="matrix(1 0 0 1 1289 1971)">Symbols should be outlined when exporting to ensure the</text>
  <text style="stroke:none;fill:black;font-family:-apple-system,&quot;SF Pro Display&quot;,&quot;SF Pro Text&quot;,Helvetica,sans-serif;" transform="matrix(1 0 0 1 1289 1989)">design is preserved when submitting to Xcode.</text>
  <text id="template-version" style="stroke:none;fill:black;font-family:-apple-system,&quot;SF Pro Display&quot;,&quot;SF Pro Text&quot;,Helvetica,sans-serif;text-anchor:end;" transform="matrix(1 0 0 1 3036 1933)">Template v.2.0</text>
  <text style="stroke:none;fill:black;font-family:-apple-system,&quot;SF Pro Display&quot;,&quot;SF Pro Text&quot;,Helvetica,sans-serif;text-anchor:end;" transform="matrix(1 0 0 1 3036 1951)">Requires Xcode 12 or greater</text>
  <text style="stroke:none;fill:black;font-family:-apple-system,&quot;SF Pro Display&quot;,&quot;SF Pro Text&quot;,Helvetica,sans-serif;text-anchor:end;" transform="matrix(1 0 0 1 3036 1969)">Generated from square.stack</text>
  <text style="stroke:none;fill:black;font-family:-apple-system,&quot;SF Pro Display&quot;,&quot;SF Pro Text&quot;,Helvetica,sans-serif;text-anchor:end;" transform="matrix(1 0 0 1 3036 1987)">Typeset at 100 points</text>
  <text style="stroke:none;fill:black;font-family:-apple-system,&quot;SF Pro Display&quot;,&quot;SF Pro Text&quot;,Helvetica,sans-serif;" transform="matrix(1 0 0 1 263 726)">Small</text>
  <text style="stroke:none;fill:black;font-family:-apple-system,&quot;SF Pro Display&quot;,&quot;SF Pro Text&quot;,Helvetica,sans-serif;" transform="matrix(1 0 0 1 263 1156)">Medium</text>
  <text style="stroke:none;fill:black;font-family:-apple-system,&quot;SF Pro Display&quot;,&quot;SF Pro Text&quot;,Helvetica,sans-serif;" transform="matrix(1 0 0 1 263 1586)">Large</text>
 </g>
 <g id="Guides">
  <g id="H-reference" style="fill:#27AAE1;stroke:none;" transform="matrix(1 0 0 1 339 696)">
   <path d="M0.976562 0L3.66211 0L12.9883-24.4629L45.752-24.4629L55.127 0L57.7637 0L30.6152-70.459L28.125-70.459ZM29.3457-67.1387L29.4434-67.1387L44.873-26.709L13.8672-26.709Z"/>
  </g>
  <line id="Baseline-S" style="fill:none;stroke:#27AAE1;opacity:1;stroke-width:0.5;" x1="263" x2="3036" y1="696" y2="696"/>
  <line id="Capline-S" style="fill:none;stroke:#27AAE1;opacity:1;stroke-width:0.5;" x1="263" x2="3036" y1="625.541" y2="625.541"/>
  <g id="H-reference" style="fill:#27AAE1;stroke:none;" transform="matrix(1 0 0 1 339 1126)">
   <path d="M0.976562 0L3.66211 0L12.9883-24.4629L45.752-24.4629L55.127 0L57.7637 0L30.6152-70.459L28.125-70.459ZM29.3457-67.1387L29.4434-67.1387L44.873-26.709L13.8672-26.709Z"/>
  </g>
  <line id="Baseline-M" style="fill:none;stroke:#27AAE1;opacity:1;stroke-width:0.5;" x1="263" x2="3036" y1="1126" y2="1126"/>
  <line id="Capline-M" style="fill:none;stroke:#27AAE1;opacity:1;stroke-width:0.5;" x1="263" x2="3036" y1="1055.54" y2="1055.54"/>
  <g id="H-reference" style="fill:#27AAE1;stroke:none;" transform="matrix(1 0 0 1 339 1556)">
   <path d="M0.976562 0L3.66211 0L12.9883-24.4629L45.752-24.4629L55.127 0L57.7637 0L30.6152-70.459L28.125-70.459ZM29.3457-67.1387L29.4434-67.1387L44.873-26.709L13.8672-26.709Z"/>
  </g>
  <line id="Baseline-L" style="fill:none;stroke:#27AAE1;opacity:1;stroke-width:0.5;" x1="263" x2="3036" y1="1556" y2="1556"/>
  <line id="Capline-L" style="fill:none;stroke:#27AAE1;opacity:1;stroke-width:0.5;" x1="263" x2="3036" y1="1485.54" y2="1485.54"/>
  <line id="left-margin" style="fill:none;stroke:#00AEEF;stroke-width:0.5;opacity:1.0;" x1="1394.13" x2="1394.13" y1="1030.79" y2="1150.12"/>
  <line id="right-margin" style="fill:none;stroke:#00AEEF;stroke-width:0.5;opacity:1.0;" x1="1505.56" x2="1505.56" y1="1030.79" y2="1150.12"/>
 </g>
 <g id="Symbols">
  <g id="Black-L" transform="matrix(1 0 0 1 2857.94 1556)">
   <path d="M41.1133-105.469L107.471-105.469C106.885-112.305 102.393-116.211 95.1172-116.211L53.4668-116.211C46.1914-116.211 41.6992-112.305 41.1133-105.469ZM30.5176-84.1309L117.871-84.1309C117.09-91.3574 112.939-95.752 104.443-95.752L43.9453-95.752C35.4492-95.752 31.3477-91.3574 30.5176-84.1309ZM39.9902 45.459L111.621 45.459C126.221 45.459 134.863 36.8652 134.863 21.6797L134.863-49.5117C134.863-64.6973 126.221-73.3398 110.986-73.3398L39.9902-73.3398C24.7559-73.3398 16.0645-64.6973 16.0645-49.5117L16.0645 21.6797C16.0645 36.8652 24.7559 45.459 39.9902 45.459ZM42.6758 25.2441C38.4766 25.2441 36.3281 23.3398 36.3281 18.7988L36.3281-46.6309C36.3281-51.2207 38.4766-53.0762 42.6758-53.0762L108.252-53.0762C112.451-53.0762 114.648-51.2207 114.648-46.6309L114.648 18.7988C114.648 23.3398 112.451 25.2441 108.887 25.2441Z"/>
  </g>
  <g id="Heavy-L" transform="matrix(1 0 0 1 2562.25 1556)">
   <path d="M40.8203-104.297L106.006-104.297C105.469-110.645 101.465-114.209 94.7266-114.209L52.0996-114.209C45.4102-114.209 41.3574-110.645 40.8203-104.297ZM30.1758-84.1309L116.406-84.1309C115.625-90.7227 111.914-94.7754 104.15-94.7754L42.4316-94.7754C34.7168-94.7754 30.957-90.7227 30.1758-84.1309ZM38.8184 43.4082L110.938 43.4082C124.707 43.4082 132.812 35.3027 132.812 20.8008L132.812-50.7324C132.812-65.2344 124.707-73.3398 110.059-73.3398L38.8184-73.3398C24.2188-73.3398 16.0645-65.2832 16.0645-50.7324L16.0645 20.8008C16.0645 35.3516 24.2188 43.4082 38.8184 43.4082ZM40.918 25.9277C36.084 25.9277 33.5938 23.6328 33.5938 18.5059L33.5938-48.4375C33.5938-53.5645 36.084-55.8594 40.918-55.8594L107.959-55.8594C112.744-55.8594 115.332-53.5645 115.332-48.4375L115.332 18.5059C115.332 23.6328 112.744 25.9277 108.789 25.9277Z"/>
  </g>
  <g id="Bold-L" transform="matrix(1 0 0 1 2266.69 1556)">
   <path d="M40.4785-103.027L104.395-103.027C103.955-108.74 100.391-111.963 94.2871-111.963L50.5859-111.963C44.4824-111.963 40.918-108.74 40.4785-103.027ZM29.834-84.082L114.795-84.082C114.014-90.0879 110.742-93.7012 103.857-93.7012L40.7715-93.7012C33.8379-93.7012 30.5664-90.0879 29.834-84.082ZM37.5 41.1133L110.156 41.1133C123.047 41.1133 130.518 33.5938 130.518 19.8242L130.518-52.0508C130.518-65.8691 122.998-73.3398 109.082-73.3398L37.5-73.3398C23.6328-73.3398 16.0645-65.8691 16.0645-52.0508L16.0645 19.8242C16.0645 33.6426 23.6328 41.1133 37.5 41.1133ZM38.9648 26.6602C33.4473 26.6602 30.5176 23.9258 30.5176 18.1641L30.5176-50.3906C30.5176-56.1523 33.4473-58.9355 38.9648-58.9355L107.617-58.9355C113.086-58.9355 116.113-56.1523 116.113-50.3906L116.113 18.1641C116.113 23.9258 113.086 26.6602 108.691 26.6602Z"/>
  </g>
  <g id="Semibold-L" transform="matrix(1 0 0 1 1970.76 1556)">
   <path d="M40.2832-102.148L103.271-102.148C102.881-107.422 99.6582-110.4 93.9941-110.4L49.5605-110.4C43.8965-110.4 40.6738-107.422 40.2832-102.148ZM29.541-84.0332L113.672-84.0332C112.891-89.5996 109.961-92.9688 103.613-92.9688L39.5996-92.9688C33.252-92.9688 30.3223-89.5996 29.541-84.0332ZM36.6211 39.5508L109.619 39.5508C121.875 39.5508 128.955 32.4219 128.955 19.1406L128.955-52.9785C128.955-66.2598 121.826-73.3887 108.398-73.3887L36.6211-73.3887C23.1934-73.3887 16.0645-66.3086 16.0645-52.9785L16.0645 19.1406C16.0645 32.4707 23.1934 39.5508 36.6211 39.5508ZM37.5977 27.1973C31.6406 27.1973 28.418 24.1211 28.418 17.9199L28.418-51.7578C28.418-57.959 31.6406-61.0352 37.5977-61.0352L107.422-61.0352C113.33-61.0352 116.602-57.959 116.602-51.7578L116.602 17.9199C116.602 24.1211 113.33 27.1973 108.643 27.1973Z"/>
  </g>
  <g id="Medium-L" transform="matrix(1 0 0 1 1674.63 1556)">
   <path d="M40.0879-101.465L102.441-101.465C102.051-106.445 99.1211-109.229 93.75-109.229L48.7793-109.229C43.4082-109.229 40.4297-106.445 40.0879-101.465ZM29.3457-83.9844L112.793-83.9844C112.061-89.2578 109.375-92.3828 103.467-92.3828L38.7207-92.3828C32.8125-92.3828 30.0781-89.2578 29.3457-83.9844ZM35.9375 38.3301L109.229 38.3301C120.996 38.3301 127.783 31.543 127.783 18.6035L127.783-53.6621C127.783-66.6016 120.947-73.3887 107.861-73.3887L35.9375-73.3887C22.9004-73.3887 16.0645-66.6504 16.0645-53.6621L16.0645 18.6035C16.0645 31.5918 22.9004 38.3301 35.9375 38.3301ZM36.5723 27.5879C30.2246 27.5879 26.8066 24.2676 26.8066 17.7246L26.8066-52.7832C26.8066-59.3262 30.2246-62.6465 36.5723-62.6465L107.227-62.6465C113.477-62.6465 117.041-59.3262 117.041-52.7832L117.041 17.7246C117.041 24.2676 113.477 27.5879 108.594 27.5879Z"/>
  </g>
  <g id="Regular-L" transform="matrix(1 0 0 1 1378.7 1556)">
   <path d="M39.8926-100.586L101.318-100.586C101.025-105.176 98.3887-107.666 93.457-107.666L47.7539-107.666C42.8223-107.666 40.1855-105.176 39.8926-100.586ZM29.1016-83.9844L111.719-83.9844C110.938-88.8184 108.545-91.6504 103.223-91.6504L37.5488-91.6504C32.2266-91.6504 29.834-88.8184 29.1016-83.9844ZM35.0586 36.7676L108.691 36.7676C119.824 36.7676 126.221 30.3711 126.221 17.9199L126.221-54.5898C126.221-66.9922 119.775-73.3887 107.178-73.3887L35.0586-73.3887C22.4609-73.3887 16.0645-67.0898 16.0645-54.5898L16.0645 17.9199C16.0645 30.4199 22.4609 36.7676 35.0586 36.7676ZM35.2539 28.125C28.418 28.125 24.707 24.4629 24.707 17.4805L24.707-54.1016C24.707-61.1328 28.418-64.7461 35.2539-64.7461L107.031-64.7461C113.721-64.7461 117.578-61.1328 117.578-54.1016L117.578 17.4805C117.578 24.4629 113.721 28.125 108.496 28.125Z"/>
  </g>
  <g id="Light-L" transform="matrix(1 0 0 1 1083.02 1556)">
   <path d="M38.8184-100.049L100.732-100.049C100.537-103.516 98.4375-105.664 94.7266-105.664L44.873-105.664C41.1133-105.664 39.0137-103.516 38.8184-100.049ZM28.6133-84.5215L110.693-84.5215C110.254-88.1836 108.301-90.5273 104.297-90.5273L35.0098-90.5273C31.0059-90.5273 29.0527-88.1836 28.6133-84.5215ZM34.0332 34.7168L107.129 34.7168C118.066 34.7168 124.17 28.5645 124.17 16.8457L124.17-55.5176C124.17-67.2363 118.066-73.3887 106.201-73.3887L34.0332-73.3887C22.168-73.3887 16.0645-67.334 16.0645-55.5176L16.0645 16.8457C16.0645 28.6621 22.168 34.7168 34.0332 34.7168ZM34.1797 28.125C26.709 28.125 22.7051 24.1699 22.7051 16.5039L22.7051-55.1758C22.7051-62.8418 26.709-66.748 34.1797-66.748L106.055-66.748C113.33-66.748 117.578-62.8418 117.578-55.1758L117.578 16.5039C117.578 24.1699 113.33 28.125 106.982 28.125Z"/>
  </g>
  <g id="Thin-L" transform="matrix(1 0 0 1 787.648 1556)">
   <path d="M37.4023-99.3164L100-99.3164C99.9512-101.367 98.5352-103.027 96.3867-103.027L41.0156-103.027C38.8672-103.027 37.4512-101.367 37.4023-99.3164ZM27.9785-85.2539L109.375-85.2539C109.277-87.3535 107.91-89.0625 105.664-89.0625L31.6895-89.0625C29.4434-89.0625 28.0762-87.3535 27.9785-85.2539ZM32.666 32.0312L105.078 32.0312C115.771 32.0312 121.484 26.1719 121.484 15.4297L121.484-56.7871C121.484-67.5293 115.771-73.3887 104.883-73.3887L32.666-73.3887C21.7773-73.3887 16.0645-67.6758 16.0645-56.7871L16.0645 15.4297C16.0645 26.3184 21.7773 32.0312 32.666 32.0312ZM32.8125 28.125C24.4141 28.125 19.9707 23.7305 19.9707 15.2344L19.9707-56.5918C19.9707-65.0879 24.4141-69.4824 32.8125-69.4824L104.736-69.4824C112.842-69.4824 117.578-65.0879 117.578-56.5918L117.578 15.2344C117.578 23.7305 112.842 28.125 104.932 28.125Z"/>
  </g>
  <g id="Ultralight-L" transform="matrix(1 0 0 1 491.62 1556)">
   <path d="M36.7188-98.9258L99.6094-98.9258C99.6094-100.293 98.584-101.709 97.2168-101.709L39.0625-101.709C37.6953-101.709 36.6699-100.293 36.7188-98.9258ZM27.6367-85.6445L108.691-85.6445C108.789-86.9141 107.715-88.3301 106.396-88.3301L29.9316-88.3301C28.6133-88.3301 27.5391-86.9141 27.6367-85.6445ZM31.9824 30.6641L104.004 30.6641C114.551 30.6641 120.117 24.9512 120.117 14.7461L120.117-57.4707C120.117-67.6758 114.551-73.3887 104.199-73.3887L31.9824-73.3887C21.582-73.3887 16.0645-67.8223 16.0645-57.4707L16.0645 14.7461C16.0645 25.0977 21.582 30.6641 31.9824 30.6641ZM32.1289 28.125C23.1934 28.125 18.6035 23.4863 18.6035 14.5996L18.6035-57.3242C18.6035-66.2109 23.1934-70.8496 32.1289-70.8496L104.053-70.8496C112.598-70.8496 117.578-66.2109 117.578-57.3242L117.578 14.5996C117.578 23.4863 112.598 28.125 103.857 28.125Z"/>
  </g>
  <g id="Black-M" transform="matrix(1 0 0 1 2874.07 1126)">
   <path d="M31.6895-90.918L84.9609-90.918C84.4238-96.3867 80.6641-99.6582 74.9512-99.6582L41.6992-99.6582C35.9375-99.6582 32.1777-96.3867 31.6895-90.918ZM23.877-73.4863L92.7734-73.4863C92.2852-79.1992 88.7695-82.8613 81.8848-82.8613L34.7656-82.8613C27.8809-82.8613 24.3652-79.1992 23.877-73.4863ZM31.9824 29.0039L86.6211 29.0039C98.9258 29.0039 106.201 21.7285 106.201 9.47266L106.201-45.2148C106.201-57.4707 98.9258-64.7461 86.6699-64.7461L31.9824-64.7461C19.7266-64.7461 12.4512-57.4707 12.4512-45.2148L12.4512 9.47266C12.4512 21.7285 19.7266 29.0039 31.9824 29.0039ZM34.9121 10.7422C32.0801 10.7422 30.7617 9.61914 30.7617 6.54297L30.7617-42.2852C30.7617-45.3613 32.0801-46.4355 34.9121-46.4355L83.7402-46.4355C86.5723-46.4355 87.8906-45.3613 87.8906-42.2852L87.8906 6.54297C87.8906 9.61914 86.5723 10.7422 83.6914 10.7422Z"/>
  </g>
  <g id="Heavy-M" transform="matrix(1 0 0 1 2578.22 1126)">
   <path d="M31.6406-89.7949L83.4961-89.7949C83.0566-94.9707 79.6387-97.9492 74.1699-97.9492L40.9668-97.9492C35.5469-97.9492 32.0801-94.9707 31.6406-89.7949ZM23.6328-73.291L91.4551-73.291C90.918-78.7109 87.6953-82.0801 81.2988-82.0801L33.7402-82.0801C27.3438-82.0801 24.1699-78.7109 23.6328-73.291ZM31.0059 27.2949L86.2793 27.2949C97.7539 27.2949 104.492 20.5078 104.492 8.78906L104.492-46.2402C104.492-58.0078 97.7051-64.7461 85.9375-64.7461L31.0059-64.7461C19.2383-64.7461 12.4512-58.0078 12.4512-46.2402L12.4512 8.78906C12.4512 20.5566 19.2383 27.2949 31.0059 27.2949ZM33.252 11.4746C29.9316 11.4746 28.2715 10.0098 28.2715 6.44531L28.2715-43.9453C28.2715-47.4609 29.9316-48.9258 33.252-48.9258L83.6914-48.9258C86.9629-48.9258 88.6719-47.4609 88.6719-43.9453L88.6719 6.44531C88.6719 10.0098 86.9629 11.4746 83.9844 11.4746Z"/>
  </g>
  <g id="Bold-M" transform="matrix(1 0 0 1 2282.46 1126)">
   <path d="M31.5918-88.5742L81.8848-88.5742C81.4941-93.3594 78.418-96.0938 73.3398-96.0938L40.1855-96.0938C35.0586-96.0938 31.9824-93.3594 31.5918-88.5742ZM23.3398-73.0957L89.9414-73.0957C89.3555-78.125 86.5234-81.2012 80.6641-81.2012L32.666-81.2012C26.7578-81.2012 23.9746-78.125 23.3398-73.0957ZM29.8828 25.3418L85.8887 25.3418C96.3867 25.3418 102.588 19.1895 102.588 8.00781L102.588-47.4609C102.588-58.5938 96.3867-64.7461 85.1562-64.7461L29.8828-64.7461C18.6523-64.7461 12.4512-58.5938 12.4512-47.4609L12.4512 8.00781C12.4512 19.1895 18.6523 25.3418 29.8828 25.3418ZM31.3965 12.3047C27.5391 12.3047 25.5371 10.4492 25.5371 6.34766L25.5371-45.752C25.5371-49.8535 27.5391-51.709 31.3965-51.709L83.6426-51.709C87.4512-51.709 89.502-49.8535 89.502-45.752L89.502 6.34766C89.502 10.4492 87.4512 12.3047 84.3262 12.3047Z"/>
  </g>
  <g id="Semibold-M" transform="matrix(1 0 0 1 1986.41 1126)">
   <path d="M31.543-87.6953L80.7617-87.6953C80.4199-92.2852 77.6367-94.7754 72.7539-94.7754L39.5996-94.7754C34.7168-94.7754 31.9336-92.2852 31.543-87.6953ZM23.1445-72.9492L88.916-72.9492C88.2812-77.7832 85.7422-80.6152 80.2246-80.6152L31.8848-80.6152C26.3672-80.6152 23.8281-77.7832 23.1445-72.9492ZM29.1016 24.0234L85.5957 24.0234C95.459 24.0234 101.27 18.2617 101.27 7.51953L101.27-48.2422C101.27-58.9844 95.459-64.7949 84.6191-64.7949L29.1016-64.7949C18.2617-64.7949 12.4512-59.0332 12.4512-48.2422L12.4512 7.51953C12.4512 18.2617 18.2617 24.0234 29.1016 24.0234ZM30.127 12.8418C25.8789 12.8418 23.6328 10.7422 23.6328 6.29883L23.6328-47.0215C23.6328-51.4648 25.8789-53.6133 30.127-53.6133L83.5938-53.6133C87.793-53.6133 90.0879-51.4648 90.0879-47.0215L90.0879 6.29883C90.0879 10.7422 87.793 12.8418 84.5703 12.8418Z"/>
  </g>
  <g id="Medium-M" transform="matrix(1 0 0 1 1690.21 1126)">
   <path d="M31.543-87.0605L79.9316-87.0605C79.5898-91.4551 77.002-93.7988 72.2656-93.7988L39.209-93.7988C34.4727-93.7988 31.8848-91.4551 31.543-87.0605ZM22.998-72.8516L88.1348-72.8516C87.4512-77.4902 85.1074-80.1758 79.834-80.1758L31.2988-80.1758C26.0742-80.1758 23.6816-77.4902 22.998-72.8516ZM28.5156 23.0469L85.4004 23.0469C94.7754 23.0469 100.244 17.5781 100.244 7.12891L100.244-48.877C100.244-59.3262 94.7266-64.7949 84.1797-64.7949L28.5156-64.7949C17.9688-64.7949 12.4512-59.3262 12.4512-48.877L12.4512 7.12891C12.4512 17.5781 17.9688 23.0469 28.5156 23.0469ZM29.1504 13.2812C24.6582 13.2812 22.168 10.9375 22.168 6.25L22.168-47.998C22.168-52.7344 24.6582-55.0293 29.1504-55.0293L83.5449-55.0293C88.0371-55.0293 90.5273-52.7344 90.5273-47.998L90.5273 6.25C90.5273 10.9375 88.0371 13.2812 84.7656 13.2812Z"/>
  </g>
  <g id="Regular-M" transform="matrix(1 0 0 1 1394.13 1126)">
   <path d="M31.4941-86.2305L78.8574-86.2305C78.5645-90.332 76.2207-92.5293 71.7285-92.5293L38.623-92.5293C34.1309-92.5293 31.7871-90.332 31.4941-86.2305ZM22.8027-72.7051L87.1094-72.7051C86.377-77.0996 84.2773-79.5898 79.3945-79.5898L30.5664-79.5898C25.6348-79.5898 23.5352-77.0996 22.8027-72.7051ZM27.7832 21.7285L85.1074 21.7285C93.8477 21.7285 98.9746 16.6504 98.9746 6.5918L98.9746-49.6582C98.9746-59.7168 93.7988-64.7949 83.6426-64.7949L27.7832-64.7949C17.5781-64.7949 12.4512-59.7656 12.4512-49.6582L12.4512 6.5918C12.4512 16.6504 17.5781 21.7285 27.7832 21.7285ZM27.8809 13.8672C22.998 13.8672 20.3125 11.2305 20.3125 6.15234L20.3125-49.2676C20.3125-54.3457 22.998-56.9336 27.8809-56.9336L83.4961-56.9336C88.3301-56.9336 91.1133-54.3457 91.1133-49.2676L91.1133 6.15234C91.1133 11.2305 88.3301 13.8672 84.9609 13.8672Z"/>
  </g>
  <g id="Light-M" transform="matrix(1 0 0 1 1098.35 1126)">
   <path d="M30.5664-85.6934L78.3203-85.6934C78.125-88.8672 76.2695-90.7227 72.8516-90.7227L36.0352-90.7227C32.6172-90.7227 30.7617-88.8672 30.5664-85.6934ZM22.4121-73.1934L86.2305-73.1934C85.7422-76.5625 84.0332-78.5645 80.3711-78.5645L28.2715-78.5645C24.5605-78.5645 22.8516-76.5625 22.4121-73.1934ZM26.8555 19.873L83.6914 19.873C92.2852 19.873 97.1191 15.0391 97.1191 5.61523L97.1191-50.5371C97.1191-59.9121 92.2852-64.7949 82.7637-64.7949L26.8555-64.7949C17.334-64.7949 12.4512-60.0098 12.4512-50.5371L12.4512 5.61523C12.4512 15.0879 17.334 19.873 26.8555 19.873ZM26.9531 13.8672C21.4844 13.8672 18.5059 10.9375 18.5059 5.32227L18.5059-50.1953C18.5059-55.8594 21.4844-58.7402 26.9531-58.7402L82.6172-58.7402C87.9883-58.7402 91.1133-55.8594 91.1133-50.1953L91.1133 5.32227C91.1133 10.9375 87.9883 13.8672 83.5938 13.8672Z"/>
  </g>
  <g id="Thin-M" transform="matrix(1 0 0 1 802.833 1126)">
   <path d="M29.2969-85.0586L77.6367-85.0586C77.5879-86.9629 76.3672-88.3301 74.3164-88.3301L32.6172-88.3301C30.6152-88.3301 29.3457-86.9629 29.2969-85.0586ZM21.8262-73.8281L85.0586-73.8281C84.9121-75.8301 83.7402-77.2461 81.5918-77.2461L25.293-77.2461C23.1445-77.2461 21.9727-75.8301 21.8262-73.8281ZM25.6348 17.4805L81.8848 17.4805C90.2344 17.4805 94.7266 12.8906 94.7266 4.3457L94.7266-51.6602C94.7266-60.2051 90.1855-64.7949 81.543-64.7949L25.6348-64.7949C16.9922-64.7949 12.4512-60.3027 12.4512-51.6602L12.4512 4.3457C12.4512 12.9883 16.9922 17.4805 25.6348 17.4805ZM25.7324 13.8672C19.3848 13.8672 16.0645 10.5469 16.0645 4.15039L16.0645-51.5137C16.0645-57.8613 19.3848-61.1816 25.7324-61.1816L81.4453-61.1816C87.5488-61.1816 91.1133-57.8613 91.1133-51.5137L91.1133 4.15039C91.1133 10.5469 87.5488 13.8672 81.7383 13.8672Z"/>
  </g>
  <g id="Ultralight-M" transform="matrix(1 0 0 1 506.733 1126)">
   <path d="M28.6621-84.7168L77.2949-84.7168C77.2949-85.9863 76.416-87.1582 75.0977-87.1582L30.8594-87.1582C29.5898-87.1582 28.6621-85.9863 28.6621-84.7168ZM21.5332-74.1699L84.4727-74.1699C84.4727-75.4395 83.5449-76.6113 82.2266-76.6113L23.7305-76.6113C22.4121-76.6113 21.5332-75.4395 21.5332-74.1699ZM25 16.2598L80.9082 16.2598C89.1602 16.2598 93.5059 11.7676 93.5059 3.71094L93.5059-52.2461C93.5059-60.3027 89.1602-64.7949 80.957-64.7949L25-64.7949C16.7969-64.7949 12.4512-60.4492 12.4512-52.2461L12.4512 3.71094C12.4512 11.9141 16.7969 16.2598 25 16.2598ZM25.0977 13.8672C18.3594 13.8672 14.8438 10.3516 14.8438 3.56445L14.8438-52.1484C14.8438-58.8867 18.3594-62.4023 25.0977-62.4023L80.8105-62.4023C87.3535-62.4023 91.1133-58.8867 91.1133-52.1484L91.1133 3.56445C91.1133 10.3516 87.3535 13.8672 80.8105 13.8672Z"/>
  </g>
  <g id="Black-S" transform="matrix(1 0 0 1 2886.96 696)">
   <path d="M24.8535-78.7598L66.4551-78.7598C66.0645-83.0566 63.1348-85.5957 58.6426-85.5957L32.666-85.5957C28.1738-85.5957 25.2441-83.0566 24.8535-78.7598ZM18.7012-65.1855L72.6074-65.1855C72.2168-69.6289 69.4824-72.5098 64.1113-72.5098L27.1973-72.5098C21.8262-72.5098 19.0918-69.6289 18.7012-65.1855ZM25 14.9902L67.8711 14.9902C77.4414 14.9902 83.1055 9.32617 83.1055-0.244141L83.1055-43.1152C83.1055-52.6855 77.4414-58.3496 67.8711-58.3496L25-58.3496C15.4297-58.3496 9.76562-52.6855 9.76562-43.1152L9.76562-0.244141C9.76562 9.32617 15.4297 14.9902 25 14.9902ZM27.2461 0.830078C25 0.830078 23.9258-0.0488281 23.9258-2.49023L23.9258-40.8691C23.9258-43.3105 25-44.1895 27.2461-44.1895L65.625-44.1895C67.8711-44.1895 68.9453-43.3105 68.9453-40.8691L68.9453-2.49023C68.9453-0.0488281 67.8711 0.830078 65.625 0.830078Z"/>
  </g>
  <g id="Heavy-S" transform="matrix(1 0 0 1 2590.81 696)">
   <path d="M24.9023-77.9785L65.4297-77.9785C65.0391-82.1289 62.3047-84.5215 57.959-84.5215L32.4219-84.5215C28.0273-84.5215 25.293-82.1289 24.9023-77.9785ZM18.5547-64.9902L71.6797-64.9902C71.2402-69.3359 68.7012-72.0215 63.5742-72.0215L26.709-72.0215C21.5332-72.0215 19.043-69.3359 18.5547-64.9902ZM24.3652 13.8672L67.7734 13.8672C76.709 13.8672 81.9824 8.59375 81.9824-0.683594L81.9824-43.8477C81.9824-53.0762 76.709-58.3496 67.4316-58.3496L24.3652-58.3496C15.0879-58.3496 9.76562-53.0762 9.76562-43.8477L9.76562-0.683594C9.76562 8.59375 15.0879 13.8672 24.3652 13.8672ZM26.0742 1.41602C23.5352 1.41602 22.2656 0.292969 22.2656-2.44141L22.2656-42.041C22.2656-44.7754 23.5352-45.8984 26.0742-45.8984L65.6738-45.8984C68.2129-45.8984 69.5312-44.7754 69.5312-42.041L69.5312-2.44141C69.5312 0.292969 68.2129 1.41602 66.0156 1.41602Z"/>
  </g>
  <g id="Bold-S" transform="matrix(1 0 0 1 2294.71 696)">
   <path d="M25-77.0996L64.2578-77.0996C63.916-81.1035 61.4258-83.3008 57.1289-83.3008L32.0801-83.3008C27.832-83.3008 25.3418-81.1035 25-77.0996ZM18.4082-64.7461L70.6543-64.7461C70.1172-68.9941 67.8223-71.4844 62.9395-71.4844L26.123-71.4844C21.2402-71.4844 18.9453-68.9941 18.4082-64.7461ZM23.6328 12.6465L67.627 12.6465C75.8789 12.6465 80.7617 7.76367 80.7617-1.12305L80.7617-44.6289C80.7617-53.5156 75.8789-58.3984 66.9434-58.3984L23.6328-58.3984C14.6973-58.3984 9.76562-53.5156 9.76562-44.6289L9.76562-1.12305C9.76562 7.76367 14.6973 12.6465 23.6328 12.6465ZM24.8047 2.00195C21.9238 2.00195 20.3613 0.634766 20.3613-2.44141L20.3613-43.3105C20.3613-46.3867 21.9238-47.7539 24.8047-47.7539L65.7715-47.7539C68.6035-47.7539 70.166-46.3867 70.166-43.3105L70.166-2.44141C70.166 0.634766 68.6035 2.00195 66.4551 2.00195Z"/>
  </g>
  <g id="Semibold-S" transform="matrix(1 0 0 1 1998.42 696)">
   <path d="M25.0488-76.4648L63.4277-76.4648C63.1348-80.3711 60.791-82.4219 56.5918-82.4219L31.8848-82.4219C27.7344-82.4219 25.3906-80.3711 25.0488-76.4648ZM18.3105-64.5996L69.9707-64.5996C69.3359-68.75 67.2363-71.0938 62.5-71.0938L25.7324-71.0938C20.9961-71.0938 18.8965-68.75 18.3105-64.5996ZM23.0957 11.7676L67.5293 11.7676C75.293 11.7676 79.9316 7.17773 79.9316-1.46484L79.9316-45.166C79.9316-53.8086 75.293-58.3984 66.6016-58.3984L23.0957-58.3984C14.4043-58.3984 9.76562-53.8086 9.76562-45.166L9.76562-1.46484C9.76562 7.17773 14.4043 11.7676 23.0957 11.7676ZM23.877 2.44141C20.752 2.44141 19.0918 0.878906 19.0918-2.39258L19.0918-44.1895C19.0918-47.5098 20.752-49.0723 23.877-49.0723L65.8203-49.0723C68.8965-49.0723 70.6055-47.5098 70.6055-44.1895L70.6055-2.39258C70.6055 0.878906 68.8965 2.44141 66.748 2.44141Z"/>
  </g>
  <g id="Medium-S" transform="matrix(1 0 0 1 1702.05 696)">
   <path d="M25.0977-76.0254L62.8418-76.0254C62.5488-79.834 60.3027-81.7871 56.2012-81.7871L31.7383-81.7871C27.6367-81.7871 25.3906-79.834 25.0977-76.0254ZM18.2129-64.502L69.4336-64.502C68.75-68.5547 66.748-70.8008 62.207-70.8008L25.4395-70.8008C20.8496-70.8008 18.8477-68.5547 18.2129-64.502ZM22.7051 11.1328L67.4316 11.1328C74.9023 11.1328 79.248 6.73828 79.248-1.70898L79.248-45.6055C79.248-54.0527 74.8535-58.3984 66.3086-58.3984L22.7051-58.3984C14.209-58.3984 9.76562-54.0527 9.76562-45.6055L9.76562-1.70898C9.76562 6.73828 14.209 11.1328 22.7051 11.1328ZM23.1934 2.7832C19.9219 2.7832 18.0664 1.07422 18.0664-2.39258L18.0664-44.873C18.0664-48.3398 19.9219-50.0488 23.1934-50.0488L65.8203-50.0488C69.0918-50.0488 70.9473-48.3398 70.9473-44.873L70.9473-2.39258C70.9473 1.07422 69.0918 2.7832 66.9922 2.7832Z"/>
  </g>
  <g id="Regular-S" transform="matrix(1 0 0 1 1405.75 696)">
   <path d="M25.1465-75.3906L62.0117-75.3906C61.7676-79.1016 59.668-80.957 55.6641-80.957L31.543-80.957C27.4902-80.957 25.4395-79.1016 25.1465-75.3906ZM18.1152-64.3555L68.7012-64.3555C68.0176-68.3105 66.1621-70.459 61.7676-70.459L25.0488-70.459C20.6543-70.459 18.7988-68.3105 18.1152-64.3555ZM22.2168 10.2539L67.3828 10.2539C74.3164 10.2539 78.418 6.20117 78.418-2.00195L78.418-46.1426C78.418-54.3457 74.2676-58.3984 65.9668-58.3984L22.2168-58.3984C13.916-58.3984 9.76562-54.3457 9.76562-46.1426L9.76562-2.00195C9.76562 6.20117 13.916 10.2539 22.2168 10.2539ZM22.3145 3.22266C18.7988 3.22266 16.7969 1.31836 16.7969-2.39258L16.7969-45.752C16.7969-49.4629 18.7988-51.3672 22.3145-51.3672L65.8691-51.3672C69.3848-51.3672 71.3867-49.4629 71.3867-45.752L71.3867-2.39258C71.3867 1.31836 69.3848 3.22266 67.2852 3.22266Z"/>
  </g>
  <g id="Light-S" transform="matrix(1 0 0 1 1109.85 696)">
   <path d="M24.3164-74.9512L61.5723-74.9512C61.377-77.832 59.7168-79.3945 56.6406-79.3945L29.248-79.3945C26.1719-79.3945 24.5117-77.832 24.3164-74.9512ZM17.7246-64.7949L67.9199-64.7949C67.4316-67.8223 65.9668-69.5801 62.5977-69.5801L23.0469-69.5801C19.6777-69.5801 18.2129-67.8223 17.7246-64.7949ZM21.3867 8.64258L66.1133 8.64258C72.9004 8.64258 76.8066 4.73633 76.8066-2.83203L76.8066-46.875C76.8066-54.4922 72.9004-58.3984 65.1855-58.3984L21.3867-58.3984C13.6719-58.3984 9.76562-54.541 9.76562-46.875L9.76562-2.83203C9.76562 4.78516 13.6719 8.64258 21.3867 8.64258ZM21.4844 3.22266C17.4316 3.22266 15.1855 1.07422 15.1855-3.125L15.1855-46.582C15.1855-50.7812 17.4316-52.9785 21.4844-52.9785L65.0879-52.9785C69.0918-52.9785 71.3867-50.7812 71.3867-46.582L71.3867-3.125C71.3867 1.07422 69.0918 3.22266 66.0156 3.22266Z"/>
  </g>
  <g id="Thin-S" transform="matrix(1 0 0 1 814.186 696)">
   <path d="M23.1934-74.4141L60.9863-74.4141C60.8887-76.123 59.8145-77.2949 57.959-77.2949L26.2207-77.2949C24.3652-77.2949 23.291-76.123 23.1934-74.4141ZM17.2363-65.332L66.8945-65.332C66.6992-67.1875 65.6738-68.4082 63.7207-68.4082L20.3613-68.4082C18.4082-68.4082 17.3828-67.1875 17.2363-65.332ZM20.3125 6.54297L64.502 6.54297C71.0938 6.54297 74.707 2.88086 74.707-3.95508L74.707-47.9004C74.707-54.7363 71.0938-58.3984 64.1602-58.3984L20.3125-58.3984C13.3789-58.3984 9.76562-54.7852 9.76562-47.9004L9.76562-3.95508C9.76562 2.92969 13.3789 6.54297 20.3125 6.54297ZM20.4102 3.22266C15.625 3.22266 13.0859 0.732422 13.0859-4.15039L13.0859-47.7051C13.0859-52.5879 15.625-55.0781 20.4102-55.0781L64.0625-55.0781C68.7012-55.0781 71.3867-52.5879 71.3867-47.7051L71.3867-4.15039C71.3867 0.732422 68.7012 3.22266 64.4043 3.22266Z"/>
  </g>
  <g id="Ultralight-S" transform="matrix(1 0 0 1 518.036 696)">
   <path d="M22.6562-74.0723L60.6445-74.0723C60.6445-75.2441 59.8633-76.2207 58.6426-76.2207L24.6582-76.2207C23.4375-76.2207 22.6562-75.2441 22.6562-74.0723ZM16.9434-65.6738L66.3574-65.6738C66.3086-66.8457 65.5273-67.8223 64.2578-67.8223L18.9941-67.8223C17.7734-67.8223 16.9922-66.8457 16.9434-65.6738ZM19.7754 5.41992L63.6719 5.41992C70.1172 5.41992 73.584 1.9043 73.584-4.54102L73.584-48.4375C73.584-54.834 70.1172-58.3984 63.623-58.3984L19.7754-58.3984C13.2324-58.3984 9.76562-54.9316 9.76562-48.4375L9.76562-4.54102C9.76562 1.95312 13.2324 5.41992 19.7754 5.41992ZM19.873 3.22266C14.6484 3.22266 11.9629 0.537109 11.9629-4.6875L11.9629-48.291C11.9629-53.5156 14.6484-56.2012 19.873-56.2012L63.5254-56.2012C68.5059-56.2012 71.3867-53.5156 71.3867-48.291L71.3867-4.6875C71.3867 0.537109 68.5059 3.22266 63.5742 3.22266Z"/>
  </g>
 </g>
</svg>
